<?xml version="1.0" encoding="utf-8"?>
<!-- Generator: Adobe Illustrator 22.1.0, SVG Export Plug-In . SVG Version: 6.00 Build 0)  -->
<svg version="1.1" id="Capa_1" xmlns="http://www.w3.org/2000/svg" xmlns:xlink="http://www.w3.org/1999/xlink" x="0px" y="0px"
	 viewBox="655.7 332 298.8 227.2" enable-background="new 655.7 332 298.8 227.2" xml:space="preserve">
<g>
	<g>
		<linearGradient id="SVGID_1_" gradientUnits="userSpaceOnUse" x1="669.2019" y1="443.5638" x2="914.7019" y2="443.5638">
			<stop  offset="0" style="stop-color:#0369D1"/>
			<stop  offset="1" style="stop-color:#00ECBC"/>
		</linearGradient>
		<path opacity="0.1" fill="url(#SVGID_1_)" d="M883.5,399.2c70.1,16.3,9.5,149.2-59.4,128.5c-90.2-27.1-105.7,36.8-139.3-26.9
			c-33.6-63.6-10.1-55.3,42-119.3C772.3,325.7,799.5,379.7,883.5,399.2z"/>
		<g opacity="0.3">
			<linearGradient id="SVGID_2_" gradientUnits="userSpaceOnUse" x1="929.4901" y1="467.2112" x2="954.4901" y2="467.2112">
				<stop  offset="0" style="stop-color:#0369D1"/>
				<stop  offset="1" style="stop-color:#00ECBC"/>
			</linearGradient>
			<path fill="url(#SVGID_2_)" d="M942,479.7c0-4.7-7.8-12.5-12.5-12.5c4.7,0,12.5-7.8,12.5-12.5c0,4.7,7.8,12.5,12.5,12.5
				C949.8,467.2,942,475,942,479.7z"/>
			<linearGradient id="SVGID_3_" gradientUnits="userSpaceOnUse" x1="937.0667" y1="467.2112" x2="946.9135" y2="467.2112">
				<stop  offset="0" style="stop-color:#00ECBC"/>
				<stop  offset="1" style="stop-color:#0369D1"/>
			</linearGradient>
			<path fill="url(#SVGID_3_)" d="M942,472.1c0-1.8-3.1-4.9-4.9-4.9c1.8,0,4.9-3.1,4.9-4.9c0,1.8,3.1,4.9,4.9,4.9
				C945.1,467.2,942,470.3,942,472.1z"/>
		</g>
		<g opacity="0.3">
			<linearGradient id="SVGID_4_" gradientUnits="userSpaceOnUse" x1="655.6774" y1="417.6877" x2="681.2401" y2="417.6877">
				<stop  offset="0" style="stop-color:#0369D1"/>
				<stop  offset="1" style="stop-color:#00ECBC"/>
			</linearGradient>
			<path fill="url(#SVGID_4_)" d="M668.5,430.5c0-4.8-8-12.8-12.8-12.8c4.8,0,12.8-8,12.8-12.8c0,4.8,8,12.8,12.8,12.8
				C676.5,417.7,668.5,425.7,668.5,430.5z"/>
			<linearGradient id="SVGID_5_" gradientUnits="userSpaceOnUse" x1="663.4244" y1="417.6877" x2="673.493" y2="417.6877">
				<stop  offset="0" style="stop-color:#00ECBC"/>
				<stop  offset="1" style="stop-color:#0369D1"/>
			</linearGradient>
			<path fill="url(#SVGID_5_)" d="M668.5,422.7c0-1.9-3.2-5-5-5c1.9,0,5-3.2,5-5c0,1.9,3.2,5,5,5
				C671.6,417.7,668.5,420.8,668.5,422.7z"/>
		</g>
		<g opacity="0.3">
			<linearGradient id="SVGID_6_" gradientUnits="userSpaceOnUse" x1="782.7089" y1="342.4877" x2="803.5916" y2="342.4877">
				<stop  offset="0" style="stop-color:#0369D1"/>
				<stop  offset="1" style="stop-color:#00ECBC"/>
			</linearGradient>
			<path fill="url(#SVGID_6_)" d="M793.2,352.9c0-3.9-6.5-10.4-10.4-10.4c3.9,0,10.4-6.5,10.4-10.4c0,3.9,6.5,10.4,10.4,10.4
				C799.7,342.5,793.2,349,793.2,352.9z"/>
			<linearGradient id="SVGID_7_" gradientUnits="userSpaceOnUse" x1="789.0377" y1="342.4877" x2="797.2628" y2="342.4877">
				<stop  offset="0" style="stop-color:#00ECBC"/>
				<stop  offset="1" style="stop-color:#0369D1"/>
			</linearGradient>
			<path fill="url(#SVGID_7_)" d="M793.2,346.6c0-1.5-2.6-4.1-4.1-4.1c1.5,0,4.1-2.6,4.1-4.1c0,1.5,2.6,4.1,4.1,4.1
				C795.7,342.5,793.2,345.1,793.2,346.6z"/>
		</g>
	</g>
	<g>
		<path fill="#D8E5ED" d="M876.3,547.8c0,3-2.4,5.3-5.3,5.3H711.1c-3,0-5.3-2.4-5.3-5.3V438.4c0-3,2.4-5.3,5.3-5.3h159.9
			c3,0,5.3,2.4,5.3,5.3V547.8z"/>
		<linearGradient id="SVGID_8_" gradientUnits="userSpaceOnUse" x1="704.207" y1="493.0948" x2="877.7656" y2="493.0948">
			<stop  offset="0" style="stop-color:#0369D1"/>
			<stop  offset="1" style="stop-color:#00ECBC"/>
		</linearGradient>
		<path fill="url(#SVGID_8_)" d="M870.9,554.6H711.1c-3.8,0-6.8-3.1-6.8-6.8V438.4c0-3.8,3.1-6.8,6.8-6.8h159.9
			c3.8,0,6.8,3.1,6.8,6.8v109.4C877.8,551.6,874.7,554.6,870.9,554.6z M711.1,434.5c-2.1,0-3.8,1.7-3.8,3.8v109.4
			c0,2.1,1.7,3.8,3.8,3.8h159.9c2.1,0,3.8-1.7,3.8-3.8V438.4c0-2.1-1.7-3.8-3.8-3.8H711.1z"/>
	</g>
	<rect x="714.1" y="440.7" fill="#FFFFFF" width="153.8" height="98.2"/>
	<g>
		<rect x="676.4" y="547.1" fill="#FFFFFF" width="229.2" height="6.7"/>
		<linearGradient id="SVGID_9_" gradientUnits="userSpaceOnUse" x1="674.9053" y1="550.4443" x2="907.0683" y2="550.4443">
			<stop  offset="0" style="stop-color:#0369D1"/>
			<stop  offset="1" style="stop-color:#00ECBC"/>
		</linearGradient>
		<path fill="url(#SVGID_9_)" d="M907.1,555.3H674.9v-9.7h232.2V555.3z M677.9,552.3h226.2v-3.7H677.9V552.3z"/>
	</g>
	<linearGradient id="SVGID_10_" gradientUnits="userSpaceOnUse" x1="675.6514" y1="555.792" x2="906.3203" y2="555.792">
		<stop  offset="0" style="stop-color:#0369D1"/>
		<stop  offset="1" style="stop-color:#00ECBC"/>
	</linearGradient>
	<path fill="url(#SVGID_10_)" d="M894.1,559.3H687.9c-3.7,0-9.1-1.2-12.2-4.5l1.1-2.5h228.5l1.1,2.5
		C903.2,558.1,897.8,559.3,894.1,559.3z M682.1,555.3c1.9,0.7,4,1,5.8,1h206.2c1.7,0,3.9-0.3,5.8-1H682.1z"/>
	<g>
		<linearGradient id="SVGID_11_" gradientUnits="userSpaceOnUse" x1="775.4219" y1="548.6495" x2="806.5547" y2="548.6495">
			<stop  offset="0" style="stop-color:#0369D1"/>
			<stop  offset="1" style="stop-color:#00ECBC"/>
		</linearGradient>
		<path fill="url(#SVGID_11_)" d="M775.4,547.1v0.7c0,1.3,1.1,2.4,2.4,2.4h26.3c1.3,0,2.4-1.1,2.4-2.4v-0.7H775.4z"/>
	</g>
	<g>
		<polygon fill="#FFFFFF" points="741.7,432.7 741.7,445.7 756.8,458.8 756.8,419.7 		"/>
		<linearGradient id="SVGID_12_" gradientUnits="userSpaceOnUse" x1="740.2412" y1="439.2237" x2="758.2686" y2="439.2237">
			<stop  offset="0" style="stop-color:#0369D1"/>
			<stop  offset="1" style="stop-color:#00ECBC"/>
		</linearGradient>
		<path fill="url(#SVGID_12_)" d="M758.3,462l-18-15.6V432l18-15.6V462z M743.2,445.1l12,10.4V423l-12,10.4V445.1z"/>
	</g>
	<path fill="#FFFFFF" d="M743.2,458.8c0,2.5-2,4.5-4.5,4.5h-39.1c-2.5,0-4.5-2-4.5-4.5v-39.1c0-2.5,2-4.5,4.5-4.5h39.1
		c2.5,0,4.5,2,4.5,4.5V458.8z"/>
	<linearGradient id="SVGID_13_" gradientUnits="userSpaceOnUse" x1="693.6592" y1="439.2237" x2="744.7451" y2="439.2237">
		<stop  offset="0" style="stop-color:#0369D1"/>
		<stop  offset="1" style="stop-color:#00ECBC"/>
	</linearGradient>
	<path fill="url(#SVGID_13_)" d="M738.7,464.8h-39.1c-3.3,0-6-2.7-6-6v-39.1c0-3.3,2.7-6,6-6h39.1c3.3,0,6,2.7,6,6v39.1
		C744.7,462.1,742,464.8,738.7,464.8z M699.7,416.7c-1.7,0-3,1.3-3,3v39.1c0,1.7,1.3,3,3,3h39.1c1.7,0,3-1.3,3-3v-39.1
		c0-1.7-1.3-3-3-3H699.7z"/>
	<linearGradient id="SVGID_14_" gradientUnits="userSpaceOnUse" x1="716.1963" y1="439.2232" x2="726.7148" y2="439.2232">
		<stop  offset="0" style="stop-color:#0369D1"/>
		<stop  offset="1" style="stop-color:#00ECBC"/>
	</linearGradient>
	<polygon fill="url(#SVGID_14_)" points="716.2,431.7 716.2,446.7 726.7,439.2 	"/>
	<linearGradient id="SVGID_15_" gradientUnits="userSpaceOnUse" x1="728.7285" y1="517.3096" x2="851.1904" y2="517.3096">
		<stop  offset="0" style="stop-color:#0369D1"/>
		<stop  offset="1" style="stop-color:#00ECBC"/>
	</linearGradient>
	<rect x="728.7" y="507.3" fill="url(#SVGID_15_)" width="122.5" height="20.1"/>
	<g>
		<g>
			<path fill="#FFFFFF" d="M733.3,517.3h9.8H733.3z"/>
			<rect x="733.3" y="516.3" fill="#FFFFFF" width="9.8" height="2"/>
		</g>
		<g>
			<path fill="#FFFFFF" d="M735.7,521.6l4.9-8.5L735.7,521.6z"/>
			
				<rect x="733.3" y="516.3" transform="matrix(0.4999 -0.8661 0.8661 0.4999 -78.8723 898.0214)" fill="#FFFFFF" width="9.8" height="2"/>
		</g>
		<g>
			<path fill="#FFFFFF" d="M740.7,521.6l-4.9-8.5L740.7,521.6z"/>
			<rect x="737.2" y="512.4" transform="matrix(0.866 -0.5 0.5 0.866 -159.7525 438.3788)" fill="#FFFFFF" width="2" height="9.8"/>
		</g>
	</g>
	<g>
		<g>
			<path fill="#FFFFFF" d="M747.3,517.3h9.8H747.3z"/>
			<rect x="747.3" y="516.3" fill="#FFFFFF" width="9.8" height="2"/>
		</g>
		<g>
			<path fill="#FFFFFF" d="M749.8,521.6l4.9-8.5L749.8,521.6z"/>
			
				<rect x="747.3" y="516.3" transform="matrix(0.4999 -0.8661 0.8661 0.4999 -71.8564 910.1728)" fill="#FFFFFF" width="9.8" height="2"/>
		</g>
		<g>
			<path fill="#FFFFFF" d="M754.7,521.6l-4.9-8.5L754.7,521.6z"/>
			
				<rect x="751.2" y="512.4" transform="matrix(0.8661 -0.4999 0.4999 0.8661 -157.8679 445.3193)" fill="#FFFFFF" width="2" height="9.8"/>
		</g>
	</g>
	<g>
		<g>
			<path fill="#FFFFFF" d="M761.3,517.3h9.8H761.3z"/>
			<rect x="761.3" y="516.3" fill="#FFFFFF" width="9.8" height="2"/>
		</g>
		<g>
			<path fill="#FFFFFF" d="M763.8,521.6l4.9-8.5L763.8,521.6z"/>
			
				<rect x="761.3" y="516.3" transform="matrix(0.4999 -0.8661 0.8661 0.4999 -64.8445 922.3159)" fill="#FFFFFF" width="9.8" height="2"/>
		</g>
		<g>
			<path fill="#FFFFFF" d="M768.7,521.6l-4.9-8.5L768.7,521.6z"/>
			<rect x="765.3" y="512.4" transform="matrix(0.866 -0.5 0.5 0.866 -155.9952 452.412)" fill="#FFFFFF" width="2" height="9.8"/>
		</g>
	</g>
	<g>
		<g>
			<path fill="#FFFFFF" d="M775.4,517.3h9.8H775.4z"/>
			<rect x="775.4" y="516.3" fill="#FFFFFF" width="9.8" height="2"/>
		</g>
		<g>
			<path fill="#FFFFFF" d="M777.8,521.6l4.9-8.5L777.8,521.6z"/>
			
				<rect x="775.4" y="516.3" transform="matrix(0.4999 -0.8661 0.8661 0.4999 -57.8279 934.4684)" fill="#FFFFFF" width="9.8" height="2"/>
		</g>
		<g>
			<path fill="#FFFFFF" d="M782.7,521.6l-4.9-8.5L782.7,521.6z"/>
			
				<rect x="779.3" y="512.4" transform="matrix(0.8661 -0.4999 0.4999 0.8661 -154.1112 459.3447)" fill="#FFFFFF" width="2" height="9.8"/>
		</g>
	</g>
	<g>
		<g>
			<path fill="#FFFFFF" d="M789.4,517.3h9.8H789.4z"/>
			<rect x="789.4" y="516.3" fill="#FFFFFF" width="9.8" height="2"/>
		</g>
		<g>
			<path fill="#FFFFFF" d="M791.8,521.6l4.9-8.5L791.8,521.6z"/>
			
				<rect x="789.4" y="516.3" transform="matrix(0.4999 -0.8661 0.8661 0.4999 -50.8139 946.6158)" fill="#FFFFFF" width="9.8" height="2"/>
		</g>
		<g>
			<path fill="#FFFFFF" d="M796.8,521.6l-4.9-8.5L796.8,521.6z"/>
			
				<rect x="793.3" y="512.4" transform="matrix(0.8661 -0.4998 0.4998 0.8661 -152.2282 466.2713)" fill="#FFFFFF" width="2" height="9.8"/>
		</g>
	</g>
	<linearGradient id="SVGID_16_" gradientUnits="userSpaceOnUse" x1="728.7285" y1="490.3272" x2="851.1904" y2="490.3272">
		<stop  offset="0" style="stop-color:#0369D1"/>
		<stop  offset="1" style="stop-color:#00ECBC"/>
	</linearGradient>
	<rect x="728.7" y="480.3" fill="url(#SVGID_16_)" width="122.5" height="20.1"/>
	<g>
		<g>
			<path fill="#FFFFFF" d="M735.3,491h75.8H735.3z"/>
			<rect x="735.3" y="490" fill="#FFFFFF" width="75.8" height="2"/>
		</g>
	</g>
	<g>
		<path fill="#FFFFFF" d="M819.6,470.6c0,1.7,1.3,3,3,3h13v12l18-12h65c1.7,0,3-1.3,3-3v-58c0-1.7-1.3-3-3-3h-96c-1.7,0-3,1.3-3,3
			V470.6z"/>
		<linearGradient id="SVGID_17_" gradientUnits="userSpaceOnUse" x1="818.1367" y1="448.2939" x2="923.1367" y2="448.2939">
			<stop  offset="0" style="stop-color:#0369D1"/>
			<stop  offset="1" style="stop-color:#00ECBC"/>
		</linearGradient>
		<path fill="url(#SVGID_17_)" d="M834.1,488.4v-13.3h-11.5c-2.5,0-4.5-2-4.5-4.5v-58c0-2.5,2-4.5,4.5-4.5h96c2.5,0,4.5,2,4.5,4.5
			v58c0,2.5-2,4.5-4.5,4.5h-64.5L834.1,488.4z M822.6,411.1c-0.8,0-1.5,0.7-1.5,1.5v58c0,0.8,0.7,1.5,1.5,1.5h14.5v10.7l16-10.7
			h65.5c0.8,0,1.5-0.7,1.5-1.5v-58c0-0.8-0.7-1.5-1.5-1.5H822.6z"/>
	</g>
	<g>
		<linearGradient id="SVGID_18_" gradientUnits="userSpaceOnUse" x1="828.1367" y1="432.6426" x2="843.1367" y2="432.6426">
			<stop  offset="0" style="stop-color:#0369D1"/>
			<stop  offset="1" style="stop-color:#00ECBC"/>
		</linearGradient>
		<path fill="url(#SVGID_18_)" d="M843.1,435.6v-2c0-2.2-1.8-4-4-4h-7c-2.2,0-4,1.8-4,4v2H843.1z"/>
		<linearGradient id="SVGID_19_" gradientUnits="userSpaceOnUse" x1="832.1367" y1="423.1426" x2="839.1367" y2="423.1426">
			<stop  offset="0" style="stop-color:#0369D1"/>
			<stop  offset="1" style="stop-color:#00ECBC"/>
		</linearGradient>
		<circle fill="url(#SVGID_19_)" cx="835.6" cy="423.1" r="3.5"/>
	</g>
	<g opacity="0.3">
		<g>
			<linearGradient id="SVGID_20_" gradientUnits="userSpaceOnUse" x1="853.041" y1="422.1426" x2="881.6367" y2="422.1426">
				<stop  offset="0" style="stop-color:#0369D1"/>
				<stop  offset="1" style="stop-color:#00ECBC"/>
			</linearGradient>
			<rect x="853" y="420.6" fill="url(#SVGID_20_)" width="28.6" height="3"/>
		</g>
		<g>
			<linearGradient id="SVGID_21_" gradientUnits="userSpaceOnUse" x1="901.9453" y1="422.1426" x2="909.541" y2="422.1426">
				<stop  offset="0" style="stop-color:#0369D1"/>
				<stop  offset="1" style="stop-color:#00ECBC"/>
			</linearGradient>
			<rect x="901.9" y="420.6" fill="url(#SVGID_21_)" width="7.6" height="3"/>
		</g>
		<g>
			<linearGradient id="SVGID_22_" gradientUnits="userSpaceOnUse" x1="853.041" y1="430.4278" x2="909.541" y2="430.4278">
				<stop  offset="0" style="stop-color:#0369D1"/>
				<stop  offset="1" style="stop-color:#00ECBC"/>
			</linearGradient>
			<rect x="853" y="428.9" fill="url(#SVGID_22_)" width="56.5" height="3"/>
		</g>
		<g>
			<linearGradient id="SVGID_23_" gradientUnits="userSpaceOnUse" x1="853.041" y1="437.4825" x2="909.541" y2="437.4825">
				<stop  offset="0" style="stop-color:#0369D1"/>
				<stop  offset="1" style="stop-color:#00ECBC"/>
			</linearGradient>
			<rect x="853" y="436" fill="url(#SVGID_23_)" width="56.5" height="3"/>
		</g>
		<g>
			<linearGradient id="SVGID_24_" gradientUnits="userSpaceOnUse" x1="853.041" y1="444.5352" x2="909.541" y2="444.5352">
				<stop  offset="0" style="stop-color:#0369D1"/>
				<stop  offset="1" style="stop-color:#00ECBC"/>
			</linearGradient>
			<rect x="853" y="443" fill="url(#SVGID_24_)" width="56.5" height="3"/>
		</g>
		<g>
			<linearGradient id="SVGID_25_" gradientUnits="userSpaceOnUse" x1="853.041" y1="451.5899" x2="909.541" y2="451.5899">
				<stop  offset="0" style="stop-color:#0369D1"/>
				<stop  offset="1" style="stop-color:#00ECBC"/>
			</linearGradient>
			<rect x="853" y="450.1" fill="url(#SVGID_25_)" width="56.5" height="3"/>
		</g>
		<g>
			<linearGradient id="SVGID_26_" gradientUnits="userSpaceOnUse" x1="853.041" y1="458.6426" x2="901.541" y2="458.6426">
				<stop  offset="0" style="stop-color:#0369D1"/>
				<stop  offset="1" style="stop-color:#00ECBC"/>
			</linearGradient>
			<rect x="853" y="457.1" fill="url(#SVGID_26_)" width="48.5" height="3"/>
		</g>
	</g>
</g>
</svg>
