<?xml version="1.0" encoding="utf-8"?>
<!-- Generator: Adobe Illustrator 22.1.0, SVG Export Plug-In . SVG Version: 6.00 Build 0)  -->
<svg version="1.1" id="Capa_1" xmlns="http://www.w3.org/2000/svg" xmlns:xlink="http://www.w3.org/1999/xlink" x="0px" y="0px"
	 viewBox="588.7 404 298.8 222.1" enable-background="new 588.7 404 298.8 222.1" xml:space="preserve">
<g>
	<linearGradient id="SVGID_1_" gradientUnits="userSpaceOnUse" x1="602.2019" y1="515.5638" x2="847.7019" y2="515.5638">
		<stop  offset="0" style="stop-color:#0369D1"/>
		<stop  offset="1" style="stop-color:#00ECBC"/>
	</linearGradient>
	<path opacity="0.1" fill="url(#SVGID_1_)" d="M816.5,471.2c70.1,16.3,9.5,149.2-59.4,128.5c-90.2-27.1-105.7,36.8-139.3-26.9
		c-33.6-63.6-10.1-55.3,42-119.3C705.3,397.7,732.5,451.7,816.5,471.2z"/>
	<g opacity="0.3">
		<linearGradient id="SVGID_2_" gradientUnits="userSpaceOnUse" x1="862.4901" y1="539.2112" x2="887.4901" y2="539.2112">
			<stop  offset="0" style="stop-color:#0369D1"/>
			<stop  offset="1" style="stop-color:#00ECBC"/>
		</linearGradient>
		<path fill="url(#SVGID_2_)" d="M875,551.7c0-4.7-7.8-12.5-12.5-12.5c4.7,0,12.5-7.8,12.5-12.5c0,4.7,7.8,12.5,12.5,12.5
			C882.8,539.2,875,547,875,551.7z"/>
		<linearGradient id="SVGID_3_" gradientUnits="userSpaceOnUse" x1="870.0667" y1="539.2112" x2="879.9135" y2="539.2112">
			<stop  offset="0" style="stop-color:#00ECBC"/>
			<stop  offset="1" style="stop-color:#0369D1"/>
		</linearGradient>
		<path fill="url(#SVGID_3_)" d="M875,544.1c0-1.8-3.1-4.9-4.9-4.9c1.8,0,4.9-3.1,4.9-4.9c0,1.8,3.1,4.9,4.9,4.9
			C878.1,539.2,875,542.3,875,544.1z"/>
	</g>
	<g opacity="0.3">
		<linearGradient id="SVGID_4_" gradientUnits="userSpaceOnUse" x1="588.6774" y1="489.6877" x2="614.2401" y2="489.6877">
			<stop  offset="0" style="stop-color:#0369D1"/>
			<stop  offset="1" style="stop-color:#00ECBC"/>
		</linearGradient>
		<path fill="url(#SVGID_4_)" d="M601.5,502.5c0-4.8-8-12.8-12.8-12.8c4.8,0,12.8-8,12.8-12.8c0,4.8,8,12.8,12.8,12.8
			C609.5,489.7,601.5,497.7,601.5,502.5z"/>
		<linearGradient id="SVGID_5_" gradientUnits="userSpaceOnUse" x1="596.4244" y1="489.6877" x2="606.493" y2="489.6877">
			<stop  offset="0" style="stop-color:#00ECBC"/>
			<stop  offset="1" style="stop-color:#0369D1"/>
		</linearGradient>
		<path fill="url(#SVGID_5_)" d="M601.5,494.7c0-1.9-3.2-5-5-5c1.9,0,5-3.2,5-5c0,1.9,3.2,5,5,5
			C604.6,489.7,601.5,492.8,601.5,494.7z"/>
	</g>
	<g opacity="0.3">
		<linearGradient id="SVGID_6_" gradientUnits="userSpaceOnUse" x1="715.7089" y1="414.4877" x2="736.5916" y2="414.4877">
			<stop  offset="0" style="stop-color:#0369D1"/>
			<stop  offset="1" style="stop-color:#00ECBC"/>
		</linearGradient>
		<path fill="url(#SVGID_6_)" d="M726.2,424.9c0-3.9-6.5-10.4-10.4-10.4c3.9,0,10.4-6.5,10.4-10.4c0,3.9,6.5,10.4,10.4,10.4
			C732.7,414.5,726.2,421,726.2,424.9z"/>
		<linearGradient id="SVGID_7_" gradientUnits="userSpaceOnUse" x1="722.0377" y1="414.4877" x2="730.2628" y2="414.4877">
			<stop  offset="0" style="stop-color:#00ECBC"/>
			<stop  offset="1" style="stop-color:#0369D1"/>
		</linearGradient>
		<path fill="url(#SVGID_7_)" d="M726.2,418.6c0-1.5-2.6-4.1-4.1-4.1c1.5,0,4.1-2.6,4.1-4.1c0,1.5,2.6,4.1,4.1,4.1
			C728.7,414.5,726.2,417.1,726.2,418.6z"/>
	</g>
	<g opacity="0.3">
		<linearGradient id="SVGID_8_" gradientUnits="userSpaceOnUse" x1="746.2324" y1="580.2588" x2="848.1416" y2="580.2588">
			<stop  offset="0" style="stop-color:#0369D1"/>
			<stop  offset="1" style="stop-color:#00ECBC"/>
		</linearGradient>
		<polygon fill="url(#SVGID_8_)" points="822,541.7 822,549.7 834.6,549.7 800.7,583.7 788.2,571.2 746.2,613.1 751.9,618.8 
			788.2,582.5 800.7,595 840.1,555.5 840.1,567.9 848.1,567.9 848.1,541.7 		"/>
		<linearGradient id="SVGID_9_" gradientUnits="userSpaceOnUse" x1="724.7949" y1="569.8569" x2="815.6328" y2="569.8569">
			<stop  offset="0" style="stop-color:#0369D1"/>
			<stop  offset="1" style="stop-color:#00ECBC"/>
		</linearGradient>
		<polygon fill="url(#SVGID_9_)" points="807.6,550.5 815.6,550.5 815.6,524.4 789.5,524.4 789.5,532.4 802.1,532.4 724.8,609.7 
			730.5,615.3 807.6,538.2 		"/>
	</g>
	<g>
		<path fill="#FFFFFF" d="M757.2,623.5c0,0.6-0.5,1.1-1.1,1.1h-69c-0.6,0-1.1-0.5-1.1-1.1V528c0-0.6,0.5-1.1,1.1-1.1h69
			c0.6,0,1.1,0.5,1.1,1.1V623.5z"/>
		<linearGradient id="SVGID_10_" gradientUnits="userSpaceOnUse" x1="684.4644" y1="575.7491" x2="758.7041" y2="575.7491">
			<stop  offset="0" style="stop-color:#0369D1"/>
			<stop  offset="1" style="stop-color:#00ECBC"/>
		</linearGradient>
		<path fill="url(#SVGID_10_)" d="M756.1,626.2h-69c-1.5,0-2.6-1.2-2.6-2.6V528c0-1.5,1.2-2.6,2.6-2.6h69c1.5,0,2.6,1.2,2.6,2.6
			v95.6C758.7,625,757.5,626.2,756.1,626.2z M687.5,623.2h68.2v-94.9h-68.2V623.2z"/>
	</g>
	<linearGradient id="SVGID_11_" gradientUnits="userSpaceOnUse" x1="695.7216" y1="547.5376" x2="747.4464" y2="547.5376">
		<stop  offset="0" style="stop-color:#0369D1"/>
		<stop  offset="1" style="stop-color:#00ECBC"/>
	</linearGradient>
	<rect x="695.7" y="541.3" opacity="0.5" fill="url(#SVGID_11_)" width="51.7" height="12.4"/>
	<linearGradient id="SVGID_12_" gradientUnits="userSpaceOnUse" x1="694.2216" y1="588.7588" x2="748.9482" y2="588.7588">
		<stop  offset="0" style="stop-color:#0369D1"/>
		<stop  offset="1" style="stop-color:#00ECBC"/>
	</linearGradient>
	<path opacity="0.5" fill="url(#SVGID_12_)" d="M748.6,561.8h-0.2v-0.2H748h-0.4h-0.4h-0.4h-0.4H746h-0.4h-0.4h-0.4h-0.4h-0.4h-0.4
		h-0.4h-0.4h-0.4h-0.4h-0.4h-0.4h-0.4h-0.4h-0.4h-0.4H739h-0.4h-0.4h-0.4h-0.4H737h-0.4h-0.4h-0.4h-0.4h-0.4h-0.4h-0.4h-0.4h-0.4
		h-0.4h-0.4H732h-0.4h-0.4h-0.4h-0.4H730h-0.4h-0.4h-0.4h-0.4h-0.4h-0.4h-0.4h-0.4h-0.4h-0.4h-0.4h-0.4h-0.4h-0.4h-0.4h-0.4H723
		h-0.4h-0.4h-0.4h-0.4H721h-0.4h-0.4h-0.4h-0.4h-0.4h-0.4h-0.4h-0.4h-0.4h-0.4h-0.4H716h-0.4h-0.4h-0.4h-0.4H714h-0.4h-0.4h-0.4
		h-0.4h-0.4h-0.4h-0.4h-0.4h-0.4h-0.4h-0.4h-0.4h-0.4h-0.4h-0.4h-0.4H707h-0.4h-0.4h-0.4h-0.4H705h-0.4h-0.4h-0.4h-0.4h-0.4h-0.4
		h-0.4h-0.4h-0.4h-0.4h-0.4h-0.4h-0.4h-0.4h-0.4h-0.4H698h-0.4h-0.4h-0.4h-0.4H696h-0.4h-0.4h-0.4v0.7h-0.1h-0.1v0.8h0h0h0h0h0h0h0
		h0h0h0h0h0h0h0v51.2h0h0h0h0h0h0h0h0h0h0h0h0h0h0h0h0h0h0h0h0h0h0v1.2h0.4h0.4h0.4h0.4h0.4h0.4h0.4h0.4h0.4h0.4h0.4h0.4h0.4h0.4
		h0.4h0.4h0.4h0.4h0.4h0.4h0.4h0.4h0.4h0.4h0.4h0.4h0.4h0.4h0.4h0.4h0.4h0.4h0.4h0.4h0.4h0.4h0.4h0.4h0.4h0.4h0.4h0.4h0.4h0.4h0.4
		h0.4h0.4h0.4h0.4h0.4h0.4h0.4h0.4h0.4h0.4h0.4h0.4h0.4h0.4h0.4h0.4h0.4h0.4h0.4h0.4h0.4h0.4h0.4h0.4h0.4h0.4h0.4h0.4h0.4h0.4h0.4
		h0.4h0.4h0.4h0.4h0.4h0.4h0.4h0.4h0.4h0.4h0.4h0.4h0.4h0.4h0.4h0.4h0.4h0.3v0.3h0.1h0.1h0.1h0.1h0.1h0.1h0.1h0.1h0.1h0.1h0.1h0.1
		h0.1h0.1h0.1h0.1h0.1h0.1h0.1h0.1h0.1h0.1h0.1h0.1h0.1h0.1h0.1h0.1h0.1h0.1h0.1h0.1h0.1h0.1h0.1h0.1h0.1h0.1h0.1h0.1h0.1h0.1h0.1
		h0.1h0.1h0.1h0.1h0.1h0.1h0.1h0.1h0.1h0.1h0.1h0.1h0.1h0.1h0.1h0.1h0.1h0.1h0.1h0.1h0.1h0.1h0.1h0.1h0.1h0.1h0.1h0.1h0.1h0.1h0.1
		h0.1h0.1h0.1h0.1h0.1h0.1h0.1h0.1h0.1h0.1h0.1h0.1h0.1h0.1h0.1h0.1h0.1h0.1h0.1h0.1h0.1h0.1h0.1h0.1h0.1h0.1h0.1h0.1h0.1h0.1h0.1
		h0.1h0.1h0.1h0.1h0.1h0.1h0.1h0.1h0.1h0.1h0.1h0.1h0.1h0.1h0.1h0.1h0.1h0.1h0.1h0.1h0.1h0.1h0.1h0.1h0.1h0.1v-1.5v-19.2h0v-20.3
		v-2.7v-10.3H748.6z M697.2,575.3L697.2,575.3h0.2h0.1h0.1h0.1h0.1h0.1h0.1h0.1h0.1h0.1h0.1h0.1h0.1h0.1h0.1h0.1h0.1h0.1h0.1h0.1
		h0.1h0.1h0.1h0.1h0.1h0.1h0.1h0.1h0.1h0.1h0.1h0.1h0.1h0.1h0.1h0.1h0.1h0.1h0.1h0.1h0.1h0.1h0.1h0.1h0.1h0.1h0.1h0.1h0.1h0.1h0.1
		h0.1h0.1h0.1h0.1h0.1h0.1h0.1h0.1h0.1h0.1h0.1h0.1h0.1h0.1h0.1h0.1h0.1h0.1h0.1h0.1h0.1h0.1h0.1h0.1h0.1h0.1h0.1h0.1h0.1h0.1h0.1
		v6.7H707h-0.4h-0.4h-0.4h-0.4H705h-0.4h-0.4h-0.4h-0.4h-0.4h-0.4h-0.4h-0.4h-0.4h-0.4h-0.4h-0.4h-0.4h-0.4h-0.4h-0.4H698h-0.4h-0.4
		V575.3z M697.2,585h0.4h0.4h0.4h0.4h0.4h0.4h0.4h0.4h0.4h0.4h0.4h0.4h0.4h0.4h0.4h0.4h0.4h0.4h0.4h0.4h0.4h0.4h0.4h0.4h0.1v7.2H707
		h-0.4h-0.4h-0.4h-0.4H705h-0.4h-0.4h-0.4h-0.4h-0.4h-0.4h-0.4h-0.4h-0.4h-0.4h-0.4h-0.4h-0.4h-0.4h-0.4h-0.4H698h-0.4h-0.4V585z
		 M697.2,595.2h0.4h0.4h0.4h0.4h0.4h0.4h0.4h0.4h0.4h0.4h0.4h0.4h0.4h0.4h0.4h0.4h0.4h0.4h0.4h0.4h0.4h0.4h0.4h0.4h0.1v7.2h-0.2
		h-0.3h-0.3H706h-0.3h-0.3h-0.3h-0.3h-0.3h-0.3h-0.3h-0.3h-0.3H703h-0.3h-0.3H702h-0.3h-0.3h-0.3h-0.3h-0.3h-0.3h-0.3h-0.3h-0.3H699
		h-0.3h-0.3h-0.3h-0.3h-0.3h-0.2V595.2z M720.1,612.5h-0.3h-0.4h-0.4h-0.4h-0.4h-0.4h-0.4h-0.4h-0.4H716h-0.4h-0.4h-0.4h-0.4H714
		h-0.4h-0.4h-0.4h-0.4h-0.4h-0.4h-0.4h-0.4h-0.4h-0.4h-0.4h-0.4h-0.4h-0.4h-0.4h-0.4H707h-0.4h-0.4h-0.4h-0.4H705h-0.4h-0.4h-0.4
		h-0.4h-0.4h-0.4h-0.4h-0.4h-0.4h-0.4h-0.4h-0.4h-0.4h-0.4h-0.4h-0.4H698h-0.4h-0.4v-7.2h0.2h0.3h0.3h0.3h0.3h0.3h0.3h0.3h0.3h0.3
		h0.3h0.3h0.3h0.3h0.3h0.3h0.3h0.3h0.3h0.3h0.3h0.3h0.3h0.3h0.3h0.3h0.3h0.3h0.3h0.3h0.3h0.3h0.3h0.3h0.3h0.3h0.3h0.3h0.3h0.3h0.3
		h0.3h0.3h0.3h0.3h0.3h0.3h0.3h0.3h0.3h0.3h0.3h0.3h0.3h0.3h0.3h0.3h0.3h0.3h0.3h0.3h0.3h0.3h0.3h0.3h0.3h0.3h0.3h0.3h0.3h0.3h0.3
		h0.3h0.3h0.3h0.1V612.5z M720.1,602.3L720.1,602.3h-0.4h-0.3h-0.3h-0.3h-0.3h-0.3h-0.3h-0.3h-0.3H717h-0.3h-0.3h-0.3h-0.3h-0.3
		h-0.3h-0.3h-0.3h-0.3h-0.3h-0.3h-0.3H713h-0.3h-0.3h-0.3h-0.3h-0.3h-0.3h-0.3h-0.3h-0.3h-0.1v-7.2h0.2h0.4h0.4h0.4h0.4h0.4h0.4h0.4
		h0.4h0.4h0.4h0.4h0.4h0.4h0.4h0.4h0.4h0.4h0.4h0.4h0.4h0.4h0.4h0.4h0.3V602.3z M720.1,592.2h-0.3h-0.4h-0.4h-0.4h-0.4h-0.4h-0.4
		h-0.4h-0.4H716h-0.4h-0.4h-0.4h-0.4H714h-0.4h-0.4h-0.4h-0.4h-0.4h-0.4h-0.4h-0.4h-0.4h-0.2V585h0.2h0.4h0.4h0.4h0.4h0.4h0.4h0.4
		h0.4h0.4h0.4h0.4h0.4h0.4h0.4h0.4h0.4h0.4h0.4h0.4h0.4h0.4h0.4h0.4h0.3V592.2z M720.1,582h-0.3h-0.4h-0.4h-0.4h-0.4h-0.4h-0.4h-0.4
		h-0.4H716h-0.4h-0.4h-0.4h-0.4H714h-0.4h-0.4h-0.4h-0.4h-0.4h-0.4h-0.4h-0.4h-0.4h-0.2v-6.7h0h0.1v-0.5h0.1h0.3h0.3h0.3h0.3h0.3
		h0.3h0.3h0.3h0.3h0.3h0.3h0.3h0.3h0.3h0.3h0.3h0.3h0.3h0.3h0.3h0.3h0.3h0.3h0.3h0.3h0.3h0.3h0.3h0.3h0.3h0V582z M733,612.5h-0.2
		h-0.4H732h-0.4h-0.4h-0.4h-0.4H730h-0.4h-0.4h-0.4h-0.4h-0.4h-0.4h-0.4h-0.4h-0.4h-0.4h-0.4h-0.4h-0.4h-0.4h-0.4h-0.4h-0.3v-7.2
		h0.3h0.3h0.3h0.3h0.3h0.3h0.3h0.3h0.3h0.3h0.3h0.3h0.3h0.3h0.3h0.3h0.3h0.3h0.3h0.3h0.3h0.3h0.3h0.3h0.3h0.3h0.3h0.3h0.3h0.3h0.3
		h0.3h0.2V612.5z M733,602.3h-0.2h-0.3h-0.3h-0.3h-0.3h-0.3H731h-0.3h-0.3h-0.3h-0.3h-0.3h-0.3h-0.3h-0.3h-0.3H728h-0.3h-0.3H727
		h-0.3h-0.3h-0.3h-0.3h-0.3h-0.3h-0.3h-0.3h-0.3H724h-0.3h-0.3h-0.3v-7.2h0.3h0.4h0.4h0.4h0.4h0.4h0.4h0.4h0.4h0.4h0.4h0.4h0.4h0.4
		h0.4h0.4h0.4h0.4h0.4h0.4h0.4h0.4h0.4h0.4h0.2V602.3z M733,592.2h-0.2h-0.4H732h-0.4h-0.4h-0.4h-0.4H730h-0.4h-0.4h-0.4h-0.4h-0.4
		h-0.4h-0.4h-0.4h-0.4h-0.4h-0.4h-0.4h-0.4h-0.4h-0.4h-0.4h-0.3V585h0.3h0.4h0.4h0.4h0.4h0.4h0.4h0.4h0.4h0.4h0.4h0.4h0.4h0.4h0.4
		h0.4h0.4h0.4h0.4h0.4h0.4h0.4h0.4h0.4h0.2V592.2z M733,582h-0.2h-0.4H732h-0.4h-0.4h-0.4h-0.4H730h-0.4h-0.4h-0.4h-0.4h-0.4h-0.4
		h-0.4h-0.4h-0.4h-0.4h-0.4h-0.4h-0.4h-0.4h-0.4h-0.4h-0.3v-7.2h0.2h0.3h0.3h0.3h0.3h0.3h0.3h0.3h0.3h0.3h0.3h0.3h0.3h0.3h0.3h0.3
		h0.3h0.3h0.3h0.3h0.3h0.3h0.3h0.3h0.3h0.3h0.3h0.3h0.3h0.3h0.3h0.1V582z"/>
	<g>
		<g>
			<linearGradient id="SVGID_13_" gradientUnits="userSpaceOnUse" x1="772.1001" y1="559.4995" x2="775.1001" y2="559.4995">
				<stop  offset="0" style="stop-color:#0369D1"/>
				<stop  offset="1" style="stop-color:#00ECBC"/>
			</linearGradient>
			<rect x="772.1" y="493.8" fill="url(#SVGID_13_)" width="3" height="131.4"/>
		</g>
		<g>
			<g>
				<g>
					<path fill="#FFFFFF" d="M794,510c-3,3-7.7,3.8-12.4,2.6c-1.2-4.7-0.5-9.3,2.6-12.4c3-3,7.7-3.8,12.4-2.6
						C797.8,502.3,797,506.9,794,510z"/>
					<linearGradient id="SVGID_14_" gradientUnits="userSpaceOnUse" x1="779.5103" y1="505.0635" x2="798.6178" y2="505.0635">
						<stop  offset="0" style="stop-color:#0369D1"/>
						<stop  offset="1" style="stop-color:#00ECBC"/>
					</linearGradient>
					<path fill="url(#SVGID_14_)" d="M785.8,514.6c-1.5,0-3-0.2-4.6-0.6l-0.8-0.2l-0.2-0.8c-1.4-5.5-0.4-10.5,3-13.8
						c2.3-2.3,5.5-3.6,9.2-3.6c1.5,0,3,0.2,4.6,0.6l0.8,0.2l0.2,0.8c1.4,5.5,0.4,10.5-3,13.8C792.7,513.4,789.5,514.6,785.8,514.6z
						 M782.8,511.3c1,0.2,2,0.3,3,0.3c2.9,0,5.3-0.9,7.1-2.7c2.4-2.4,3.2-6,2.4-10.1c-1-0.2-2-0.3-3-0.3c-2.9,0-5.3,0.9-7.1,2.7
						C782.8,503.6,782,507.2,782.8,511.3z"/>
				</g>
				<g>
					<linearGradient id="SVGID_15_" gradientUnits="userSpaceOnUse" x1="773.1215" y1="515.666" x2="783.8056" y2="515.666">
						<stop  offset="0" style="stop-color:#0369D1"/>
						<stop  offset="1" style="stop-color:#00ECBC"/>
					</linearGradient>
					<polygon fill="url(#SVGID_15_)" points="775.2,521 773.1,518.9 781.7,510.3 783.8,512.4 					"/>
				</g>
			</g>
		</g>
		<g>
			<g>
				<g>
					<path fill="#FFFFFF" d="M753.8,510c3,3,7.7,3.8,12.4,2.6c1.2-4.7,0.5-9.3-2.6-12.4c-3-3-7.7-3.8-12.4-2.6
						C750,502.3,750.7,506.9,753.8,510z"/>
					<linearGradient id="SVGID_16_" gradientUnits="userSpaceOnUse" x1="749.1251" y1="505.0635" x2="768.2326" y2="505.0635">
						<stop  offset="0" style="stop-color:#0369D1"/>
						<stop  offset="1" style="stop-color:#00ECBC"/>
					</linearGradient>
					<path fill="url(#SVGID_16_)" d="M762,514.6L762,514.6c-3.7,0-6.9-1.2-9.2-3.6c-3.3-3.3-4.4-8.4-3-13.8l0.2-0.8l0.8-0.2
						c1.5-0.4,3.1-0.6,4.6-0.6c3.7,0,6.9,1.2,9.2,3.6c3.3,3.3,4.4,8.4,3,13.8l-0.2,0.8l-0.8,0.2C765,514.4,763.5,514.6,762,514.6z
						 M752.4,498.8c-0.8,4.1,0,7.7,2.4,10.1c1.8,1.8,4.2,2.7,7.1,2.7h0c1,0,1.9-0.1,3-0.3c0.8-4.1,0-7.7-2.4-10.1
						c-1.8-1.8-4.2-2.7-7.1-2.7C754.4,498.5,753.4,498.6,752.4,498.8z"/>
				</g>
				<g>
					<linearGradient id="SVGID_17_" gradientUnits="userSpaceOnUse" x1="763.9375" y1="515.666" x2="774.6215" y2="515.666">
						<stop  offset="0" style="stop-color:#0369D1"/>
						<stop  offset="1" style="stop-color:#00ECBC"/>
					</linearGradient>
					<polygon fill="url(#SVGID_17_)" points="772.5,521 763.9,512.4 766.1,510.3 774.6,518.9 					"/>
				</g>
			</g>
		</g>
		<g>
			<g>
				<path fill="#FFFFFF" d="M791.1,476.4c0,9.5-7.7,17.3-17.3,17.3c-9.5,0-17.3-7.7-17.3-17.3c0-9.5,7.7-17.3,17.3-17.3
					C783.4,459.1,791.1,466.9,791.1,476.4z"/>
				<linearGradient id="SVGID_18_" gradientUnits="userSpaceOnUse" x1="755.0166" y1="476.4179" x2="792.5963" y2="476.4179">
					<stop  offset="0" style="stop-color:#0369D1"/>
					<stop  offset="1" style="stop-color:#00ECBC"/>
				</linearGradient>
				<path fill="url(#SVGID_18_)" d="M773.8,495.2c-10.4,0-18.8-8.4-18.8-18.8c0-10.4,8.4-18.8,18.8-18.8c10.4,0,18.8,8.4,18.8,18.8
					C792.6,486.8,784.2,495.2,773.8,495.2z M773.8,460.6c-8.7,0-15.8,7.1-15.8,15.8c0,8.7,7.1,15.8,15.8,15.8
					c8.7,0,15.8-7.1,15.8-15.8C789.6,467.7,782.5,460.6,773.8,460.6z"/>
			</g>
			<g>
				<g>
					<linearGradient id="SVGID_19_" gradientUnits="userSpaceOnUse" x1="768.3687" y1="476.0634" x2="775.2807" y2="476.0634">
						<stop  offset="0" style="stop-color:#0369D1"/>
						<stop  offset="1" style="stop-color:#00ECBC"/>
					</linearGradient>
					<polygon fill="url(#SVGID_19_)" points="775.3,483.2 772.3,483.2 772.3,473.3 770.2,474.9 768.4,472.5 772.8,469 775.3,470.1 
											"/>
				</g>
			</g>
		</g>
	</g>
	<g>
		<g>
			<linearGradient id="SVGID_20_" gradientUnits="userSpaceOnUse" x1="653.1001" y1="605.2495" x2="656.1001" y2="605.2495">
				<stop  offset="0" style="stop-color:#0369D1"/>
				<stop  offset="1" style="stop-color:#00ECBC"/>
			</linearGradient>
			<rect x="653.1" y="584.3" fill="url(#SVGID_20_)" width="3" height="41.9"/>
		</g>
		<g>
			<g>
				<g>
					<path fill="#FFFFFF" d="M675,600.5c-3,3-7.7,3.8-12.4,2.6c-1.2-4.7-0.5-9.3,2.6-12.4c3-3,7.7-3.8,12.4-2.6
						C678.8,592.8,678,597.4,675,600.5z"/>
					<linearGradient id="SVGID_21_" gradientUnits="userSpaceOnUse" x1="660.5103" y1="595.5635" x2="679.6178" y2="595.5635">
						<stop  offset="0" style="stop-color:#0369D1"/>
						<stop  offset="1" style="stop-color:#00ECBC"/>
					</linearGradient>
					<path fill="url(#SVGID_21_)" d="M666.8,605.1c-1.5,0-3-0.2-4.6-0.6l-0.8-0.2l-0.2-0.8c-1.4-5.5-0.4-10.5,3-13.8
						c2.3-2.3,5.5-3.6,9.2-3.6c1.5,0,3,0.2,4.6,0.6l0.8,0.2l0.2,0.8c1.4,5.5,0.4,10.5-3,13.8C673.7,603.9,670.5,605.1,666.8,605.1z
						 M663.8,601.8c1,0.2,2,0.3,3,0.3c2.9,0,5.3-0.9,7.1-2.7c2.4-2.4,3.2-6,2.4-10.1c-1-0.2-2-0.3-3-0.3c-2.9,0-5.3,0.9-7.1,2.7
						C663.8,594.1,663,597.7,663.8,601.8z"/>
				</g>
				<g>
					<linearGradient id="SVGID_22_" gradientUnits="userSpaceOnUse" x1="654.1215" y1="606.166" x2="664.8056" y2="606.166">
						<stop  offset="0" style="stop-color:#0369D1"/>
						<stop  offset="1" style="stop-color:#00ECBC"/>
					</linearGradient>
					<polygon fill="url(#SVGID_22_)" points="656.2,611.5 654.1,609.4 662.7,600.8 664.8,602.9 					"/>
				</g>
			</g>
		</g>
		<g>
			<g>
				<g>
					<path fill="#FFFFFF" d="M634.8,600.5c3,3,7.7,3.8,12.4,2.6c1.2-4.7,0.5-9.3-2.6-12.4c-3-3-7.7-3.8-12.4-2.6
						C631,592.8,631.7,597.4,634.8,600.5z"/>
					<linearGradient id="SVGID_23_" gradientUnits="userSpaceOnUse" x1="630.1251" y1="595.5635" x2="649.2326" y2="595.5635">
						<stop  offset="0" style="stop-color:#0369D1"/>
						<stop  offset="1" style="stop-color:#00ECBC"/>
					</linearGradient>
					<path fill="url(#SVGID_23_)" d="M643,605.1L643,605.1c-3.7,0-6.9-1.2-9.2-3.6c-3.3-3.3-4.4-8.4-3-13.8l0.2-0.8l0.8-0.2
						c1.5-0.4,3.1-0.6,4.6-0.6c3.7,0,6.9,1.2,9.2,3.6c3.3,3.3,4.4,8.4,3,13.8l-0.2,0.8l-0.8,0.2C646,604.9,644.5,605.1,643,605.1z
						 M633.4,589.3c-0.8,4.1,0,7.7,2.4,10.1c1.8,1.8,4.2,2.7,7.1,2.7h0c1,0,1.9-0.1,3-0.3c0.8-4.1,0-7.7-2.4-10.1
						c-1.8-1.8-4.2-2.7-7.1-2.7C635.4,589,634.4,589.1,633.4,589.3z"/>
				</g>
				<g>
					<linearGradient id="SVGID_24_" gradientUnits="userSpaceOnUse" x1="644.9375" y1="606.166" x2="655.6215" y2="606.166">
						<stop  offset="0" style="stop-color:#0369D1"/>
						<stop  offset="1" style="stop-color:#00ECBC"/>
					</linearGradient>
					<polygon fill="url(#SVGID_24_)" points="653.5,611.5 644.9,602.9 647.1,600.8 655.6,609.4 					"/>
				</g>
			</g>
		</g>
		<g>
			<g>
				<path fill="#FFFFFF" d="M672.1,566.9c0,9.5-7.7,17.3-17.3,17.3c-9.5,0-17.3-7.7-17.3-17.3c0-9.5,7.7-17.3,17.3-17.3
					C664.4,549.6,672.1,557.4,672.1,566.9z"/>
				<linearGradient id="SVGID_25_" gradientUnits="userSpaceOnUse" x1="636.0166" y1="566.918" x2="673.5963" y2="566.918">
					<stop  offset="0" style="stop-color:#0369D1"/>
					<stop  offset="1" style="stop-color:#00ECBC"/>
				</linearGradient>
				<path fill="url(#SVGID_25_)" d="M654.8,585.7c-10.4,0-18.8-8.4-18.8-18.8c0-10.4,8.4-18.8,18.8-18.8c10.4,0,18.8,8.4,18.8,18.8
					C673.6,577.3,665.2,585.7,654.8,585.7z M654.8,551.1c-8.7,0-15.8,7.1-15.8,15.8c0,8.7,7.1,15.8,15.8,15.8
					c8.7,0,15.8-7.1,15.8-15.8C670.6,558.2,663.5,551.1,654.8,551.1z"/>
			</g>
			<g>
				<g>
					<linearGradient id="SVGID_26_" gradientUnits="userSpaceOnUse" x1="649.3687" y1="566.5635" x2="656.2807" y2="566.5635">
						<stop  offset="0" style="stop-color:#0369D1"/>
						<stop  offset="1" style="stop-color:#00ECBC"/>
					</linearGradient>
					<polygon fill="url(#SVGID_26_)" points="656.3,573.7 653.3,573.7 653.3,563.8 651.2,565.4 649.4,563 653.8,559.5 656.3,560.6 
											"/>
				</g>
			</g>
		</g>
	</g>
	<g>
		<linearGradient id="SVGID_27_" gradientUnits="userSpaceOnUse" x1="762.561" y1="624.6797" x2="830.561" y2="624.6797">
			<stop  offset="0" style="stop-color:#0369D1"/>
			<stop  offset="1" style="stop-color:#00ECBC"/>
		</linearGradient>
		<rect x="762.6" y="623.2" fill="url(#SVGID_27_)" width="68" height="3"/>
	</g>
	<g>
		<linearGradient id="SVGID_28_" gradientUnits="userSpaceOnUse" x1="623.561" y1="624.6797" x2="680.561" y2="624.6797">
			<stop  offset="0" style="stop-color:#0369D1"/>
			<stop  offset="1" style="stop-color:#00ECBC"/>
		</linearGradient>
		<rect x="623.6" y="623.2" fill="url(#SVGID_28_)" width="57" height="3"/>
	</g>
	<linearGradient id="SVGID_29_" gradientUnits="userSpaceOnUse" x1="676.2475" y1="470.3745" x2="697.4796" y2="470.3745">
		<stop  offset="0" style="stop-color:#0369D1"/>
		<stop  offset="1" style="stop-color:#00ECBC"/>
	</linearGradient>
	<path opacity="0.5" fill="url(#SVGID_29_)" d="M676.2,480.7V460c11.3,0.7,20.2,9.4,21.2,20.7H676.2z"/>
	<linearGradient id="SVGID_30_" gradientUnits="userSpaceOnUse" x1="678.5678" y1="491.7969" x2="697.5429" y2="491.7969">
		<stop  offset="0" style="stop-color:#0369D1"/>
		<stop  offset="1" style="stop-color:#00ECBC"/>
	</linearGradient>
	<path opacity="0.5" fill="url(#SVGID_30_)" d="M678.6,484.2c2.7,3.5,7.4,9.5,11.8,15.3c0.2-0.2,0.3-0.3,0.5-0.5
		c4-4,6.3-9.2,6.6-14.8H678.6z"/>
	<g>
		<linearGradient id="SVGID_31_" gradientUnits="userSpaceOnUse" x1="675.9287" y1="479.0957" x2="703.748" y2="479.0957">
			<stop  offset="0" style="stop-color:#0369D1"/>
			<stop  offset="1" style="stop-color:#00ECBC"/>
		</linearGradient>
		<path fill="url(#SVGID_31_)" d="M694.2,504.4l-2-2.2c5.4-4.9,8.6-12,8.6-19.3c0-13.9-10.9-25.4-24.8-26l0.1-3
			c15.5,0.7,27.7,13.5,27.7,29C703.7,491,700.3,498.9,694.2,504.4z"/>
	</g>
	<g>
		<path fill="#FFFFFF" d="M671,483.7v-28.2c-13.4,1.9-23.8,13.4-23.8,27.3c0,15.2,12.4,27.6,27.6,27.6c5,0,9.7-1.3,13.8-3.7
			L671,483.7z"/>
		<linearGradient id="SVGID_32_" gradientUnits="userSpaceOnUse" x1="645.7651" y1="482.8296" x2="690.8715" y2="482.8296">
			<stop  offset="0" style="stop-color:#0369D1"/>
			<stop  offset="1" style="stop-color:#00ECBC"/>
		</linearGradient>
		<path fill="url(#SVGID_32_)" d="M674.9,511.9c-16,0-29.1-13-29.1-29.1c0-14.4,10.8-26.8,25.1-28.8l1.7-0.2v29.4l18.3,23.9
			l-1.5,0.9C685,510.5,680,511.9,674.9,511.9z M669.5,457.3c-12,2.5-20.8,13.2-20.8,25.5c0,14.4,11.7,26.1,26.1,26.1
			c4,0,8-0.9,11.5-2.7l-16.8-22V457.3z"/>
	</g>
</g>
</svg>
