<?xml version="1.0" encoding="utf-8"?>
<!-- Generator: Adobe Illustrator 22.1.0, SVG Export Plug-In . SVG Version: 6.00 Build 0)  -->
<svg version="1.1" id="Capa_1" xmlns="http://www.w3.org/2000/svg" xmlns:xlink="http://www.w3.org/1999/xlink" x="0px" y="0px"
	 viewBox="912.4 615 304.6 288.4" enable-background="new 912.4 615 304.6 288.4" xml:space="preserve">
<g>
	<g>
		<linearGradient id="SVGID_1_" gradientUnits="userSpaceOnUse" x1="927.2019" y1="726.5638" x2="1172.7019" y2="726.5638">
			<stop  offset="0" style="stop-color:#0369D1"/>
			<stop  offset="1" style="stop-color:#00ECBC"/>
		</linearGradient>
		<path opacity="0.1" fill="url(#SVGID_1_)" d="M1141.5,682.2c70.1,16.3,9.5,149.2-59.4,128.5c-90.2-27.1-105.7,36.8-139.3-26.9
			c-33.6-63.6-10.1-55.3,42-119.3C1030.3,608.7,1057.5,662.7,1141.5,682.2z"/>
		<g opacity="0.3">
			<linearGradient id="SVGID_2_" gradientUnits="userSpaceOnUse" x1="1187.49" y1="750.2112" x2="1212.49" y2="750.2112">
				<stop  offset="0" style="stop-color:#0369D1"/>
				<stop  offset="1" style="stop-color:#00ECBC"/>
			</linearGradient>
			<path fill="url(#SVGID_2_)" d="M1200,762.7c0-4.7-7.8-12.5-12.5-12.5c4.7,0,12.5-7.8,12.5-12.5c0,4.7,7.8,12.5,12.5,12.5
				C1207.8,750.2,1200,758,1200,762.7z"/>
			<linearGradient id="SVGID_3_" gradientUnits="userSpaceOnUse" x1="1195.0667" y1="750.2112" x2="1204.9135" y2="750.2112">
				<stop  offset="0" style="stop-color:#00ECBC"/>
				<stop  offset="1" style="stop-color:#0369D1"/>
			</linearGradient>
			<path fill="url(#SVGID_3_)" d="M1200,755.1c0-1.8-3.1-4.9-4.9-4.9c1.8,0,4.9-3.1,4.9-4.9c0,1.8,3.1,4.9,4.9,4.9
				C1203.1,750.2,1200,753.3,1200,755.1z"/>
		</g>
		<g opacity="0.3">
			<linearGradient id="SVGID_4_" gradientUnits="userSpaceOnUse" x1="913.6774" y1="700.6877" x2="939.24" y2="700.6877">
				<stop  offset="0" style="stop-color:#0369D1"/>
				<stop  offset="1" style="stop-color:#00ECBC"/>
			</linearGradient>
			<path fill="url(#SVGID_4_)" d="M926.5,713.5c0-4.8-8-12.8-12.8-12.8c4.8,0,12.8-8,12.8-12.8c0,4.8,8,12.8,12.8,12.8
				C934.5,700.7,926.5,708.7,926.5,713.5z"/>
			<linearGradient id="SVGID_5_" gradientUnits="userSpaceOnUse" x1="921.4244" y1="700.6877" x2="931.4929" y2="700.6877">
				<stop  offset="0" style="stop-color:#00ECBC"/>
				<stop  offset="1" style="stop-color:#0369D1"/>
			</linearGradient>
			<path fill="url(#SVGID_5_)" d="M926.5,705.7c0-1.9-3.2-5-5-5c1.9,0,5-3.2,5-5c0,1.9,3.2,5,5,5
				C929.6,700.7,926.5,703.8,926.5,705.7z"/>
		</g>
		<g opacity="0.3">
			<linearGradient id="SVGID_6_" gradientUnits="userSpaceOnUse" x1="1040.7089" y1="625.4877" x2="1061.5916" y2="625.4877">
				<stop  offset="0" style="stop-color:#0369D1"/>
				<stop  offset="1" style="stop-color:#00ECBC"/>
			</linearGradient>
			<path fill="url(#SVGID_6_)" d="M1051.2,635.9c0-3.9-6.5-10.4-10.4-10.4c3.9,0,10.4-6.5,10.4-10.4c0,3.9,6.5,10.4,10.4,10.4
				C1057.7,625.5,1051.2,632,1051.2,635.9z"/>
			<linearGradient id="SVGID_7_" gradientUnits="userSpaceOnUse" x1="1047.0376" y1="625.4877" x2="1055.2628" y2="625.4877">
				<stop  offset="0" style="stop-color:#00ECBC"/>
				<stop  offset="1" style="stop-color:#0369D1"/>
			</linearGradient>
			<path fill="url(#SVGID_7_)" d="M1051.2,629.6c0-1.5-2.6-4.1-4.1-4.1c1.5,0,4.1-2.6,4.1-4.1c0,1.5,2.6,4.1,4.1,4.1
				C1053.7,625.5,1051.2,628.1,1051.2,629.6z"/>
		</g>
	</g>
	<g>
		<g>
			<g>
				<linearGradient id="SVGID_8_" gradientUnits="userSpaceOnUse" x1="971.2217" y1="781.7475" x2="1162.5488" y2="781.7475">
					<stop  offset="0" style="stop-color:#0369D1"/>
					<stop  offset="1" style="stop-color:#00ECBC"/>
				</linearGradient>
				<path opacity="0.3" fill="url(#SVGID_8_)" d="M1162.5,843.1c0,3.3-2.7,6-6,6H977.2c-3.3,0-6-2.7-6-6V720.4c0-3.3,2.7-6,6-6
					h179.3c3.3,0,6,2.7,6,6V843.1z"/>
				<linearGradient id="SVGID_9_" gradientUnits="userSpaceOnUse" x1="969.7217" y1="781.7475" x2="1164.0488" y2="781.7475">
					<stop  offset="0" style="stop-color:#0369D1"/>
					<stop  offset="1" style="stop-color:#00ECBC"/>
				</linearGradient>
				<path fill="url(#SVGID_9_)" d="M1156.6,850.6H977.2c-4.1,0-7.5-3.4-7.5-7.5V720.4c0-4.1,3.4-7.5,7.5-7.5h179.3
					c4.1,0,7.5,3.4,7.5,7.5v122.7C1164,847.2,1160.7,850.6,1156.6,850.6z M977.2,715.9c-2.5,0-4.5,2-4.5,4.5v122.7
					c0,2.5,2,4.5,4.5,4.5h179.3c2.5,0,4.5-2,4.5-4.5V720.4c0-2.5-2-4.5-4.5-4.5H977.2z"/>
			</g>
			<rect x="980.6" y="723" fill="#FFFFFF" width="172.6" height="110.1"/>
			<g>
				<path fill="#FFFFFF" d="M1195.4,848.7c0-0.1,0.1-0.1,0.1-0.2l-0.1-6.2H938.4v6.2c0,0,0,0.1,0,0.2l0.7,1.2
					c3.3,5.4,9.2,6.3,15.9,6.3h223.9c6.7,0,12.6-1,15.9-6.3L1195.4,848.7z"/>
				<linearGradient id="SVGID_10_" gradientUnits="userSpaceOnUse" x1="936.8387" y1="849.2387" x2="1197.0332" y2="849.2387">
					<stop  offset="0" style="stop-color:#0369D1"/>
					<stop  offset="1" style="stop-color:#00ECBC"/>
				</linearGradient>
				<path fill="url(#SVGID_10_)" d="M1178.8,857.7H954.9c-6.7,0-13.4-0.9-17.2-7l-0.7-1.2c-0.2-0.4-0.2-0.8-0.2-1.1v-7.5h260l0.1,8
					l-0.3,0.6l-0.7,1.2C1192.2,856.8,1185.5,857.7,1178.8,857.7z M939.9,848.3l0.5,0.8c2.8,4.6,7.9,5.6,14.6,5.6h223.9
					c6.7,0,11.8-1,14.7-5.6l0.5-0.9l-0.1-4.3H939.9V848.3z"/>
			</g>
			<g>
				<linearGradient id="SVGID_11_" gradientUnits="userSpaceOnUse" x1="1049.4238" y1="844.0668" x2="1084.3467" y2="844.0668">
					<stop  offset="0" style="stop-color:#0369D1"/>
					<stop  offset="1" style="stop-color:#00ECBC"/>
				</linearGradient>
				<path fill="url(#SVGID_11_)" d="M1049.4,842.3v0.8c0,1.5,1.2,2.7,2.7,2.7h29.6c1.5,0,2.7-1.2,2.7-2.7v-0.8H1049.4z"/>
			</g>
		</g>
		<g>
			<linearGradient id="SVGID_12_" gradientUnits="userSpaceOnUse" x1="986.1758" y1="757.4546" x2="1099.6797" y2="757.4546">
				<stop  offset="0" style="stop-color:#0369D1"/>
				<stop  offset="1" style="stop-color:#00ECBC"/>
			</linearGradient>
			<rect x="986.2" y="728.5" fill="url(#SVGID_12_)" width="113.5" height="58"/>
			<polygon fill="#FFFFFF" points="1048.6,757.5 1041.5,761.6 1034.3,765.7 1034.3,757.5 1034.3,749.2 1041.5,753.3 			"/>
			<g>
				<path fill="#FFFFFF" d="M999.5,795.1h7.8H999.5z"/>
				<linearGradient id="SVGID_13_" gradientUnits="userSpaceOnUse" x1="999.4668" y1="795.0776" x2="1007.2676" y2="795.0776">
					<stop  offset="0" style="stop-color:#0369D1"/>
					<stop  offset="1" style="stop-color:#00ECBC"/>
				</linearGradient>
				<rect x="999.5" y="794.1" fill="url(#SVGID_13_)" width="7.8" height="2"/>
			</g>
			<g>
				<path fill="#FFFFFF" d="M1091.3,795.1H1015H1091.3z"/>
				<linearGradient id="SVGID_14_" gradientUnits="userSpaceOnUse" x1="1014.9717" y1="795.0776" x2="1091.3008" y2="795.0776">
					<stop  offset="0" style="stop-color:#0369D1"/>
					<stop  offset="1" style="stop-color:#00ECBC"/>
				</linearGradient>
				<rect x="1015" y="794.1" fill="url(#SVGID_14_)" width="76.3" height="2"/>
			</g>
			<g>
				<path fill="#FFFFFF" d="M1094.2,795.1h5.2H1094.2z"/>
				<linearGradient id="SVGID_15_" gradientUnits="userSpaceOnUse" x1="1094.1729" y1="795.0776" x2="1099.3857" y2="795.0776">
					<stop  offset="0" style="stop-color:#0369D1"/>
					<stop  offset="1" style="stop-color:#00ECBC"/>
				</linearGradient>
				<rect x="1094.2" y="794.1" fill="url(#SVGID_15_)" width="5.2" height="2"/>
			</g>
			<g>
				<path fill="#FFFFFF" d="M987,791.7v6.7V791.7z"/>
				<linearGradient id="SVGID_16_" gradientUnits="userSpaceOnUse" x1="986.0488" y1="795.0805" x2="988.0488" y2="795.0805">
					<stop  offset="0" style="stop-color:#0369D1"/>
					<stop  offset="1" style="stop-color:#00ECBC"/>
				</linearGradient>
				<rect x="986" y="791.7" fill="url(#SVGID_16_)" width="2" height="6.7"/>
			</g>
			<g>
				<path fill="#FFFFFF" d="M992.6,791.7v6.7V791.7z"/>
				<linearGradient id="SVGID_17_" gradientUnits="userSpaceOnUse" x1="991.5693" y1="795.0805" x2="993.5693" y2="795.0805">
					<stop  offset="0" style="stop-color:#0369D1"/>
					<stop  offset="1" style="stop-color:#00ECBC"/>
				</linearGradient>
				<rect x="991.6" y="791.7" fill="url(#SVGID_17_)" width="2" height="6.7"/>
			</g>
			<g>
				<path fill="#FFFFFF" d="M1016.1,795.1c0,2.2-1.8,3.9-3.9,3.9c-2.2,0-3.9-1.8-3.9-3.9c0-2.2,1.8-3.9,3.9-3.9
					C1014.3,791.1,1016.1,792.9,1016.1,795.1z"/>
				<linearGradient id="SVGID_18_" gradientUnits="userSpaceOnUse" x1="1007.1631" y1="795.0795" x2="1017.0586" y2="795.0795">
					<stop  offset="0" style="stop-color:#0369D1"/>
					<stop  offset="1" style="stop-color:#00ECBC"/>
				</linearGradient>
				<path fill="url(#SVGID_18_)" d="M1012.1,800c-2.7,0-4.9-2.2-4.9-4.9c0-2.7,2.2-4.9,4.9-4.9c2.7,0,4.9,2.2,4.9,4.9
					C1017.1,797.8,1014.8,800,1012.1,800z M1012.1,792.1c-1.6,0-2.9,1.3-2.9,2.9c0,1.6,1.3,2.9,2.9,2.9c1.6,0,2.9-1.3,2.9-2.9
					C1015.1,793.5,1013.7,792.1,1012.1,792.1z"/>
			</g>
		</g>
		<g>
			<g>
				<linearGradient id="SVGID_19_" gradientUnits="userSpaceOnUse" x1="1103.9951" y1="734.5385" x2="1121.5586" y2="734.5385">
					<stop  offset="0" style="stop-color:#0369D1"/>
					<stop  offset="1" style="stop-color:#00ECBC"/>
				</linearGradient>
				<rect x="1104" y="728.6" opacity="0.3" fill="url(#SVGID_19_)" width="17.6" height="11.8"/>
				<g>
					<g>
						<rect x="1124.8" y="729.1" fill="#B0D9EF" width="24.9" height="2"/>
					</g>
					<g>
						<rect x="1124.8" y="732.9" fill="#B0D9EF" width="21.4" height="2"/>
					</g>
					<g>
						<linearGradient id="SVGID_20_" gradientUnits="userSpaceOnUse" x1="1124.7529" y1="739.0112" x2="1142.9561" y2="739.0112">
							<stop  offset="0" style="stop-color:#0369D1"/>
							<stop  offset="1" style="stop-color:#00ECBC"/>
						</linearGradient>
						<rect x="1124.8" y="738" opacity="0.3" fill="url(#SVGID_20_)" width="18.2" height="2"/>
					</g>
				</g>
			</g>
			<g>
				<linearGradient id="SVGID_21_" gradientUnits="userSpaceOnUse" x1="1103.9951" y1="749.4526" x2="1121.5586" y2="749.4526">
					<stop  offset="0" style="stop-color:#0369D1"/>
					<stop  offset="1" style="stop-color:#00ECBC"/>
				</linearGradient>
				<rect x="1104" y="743.5" opacity="0.3" fill="url(#SVGID_21_)" width="17.6" height="11.8"/>
				<g>
					<g>
						<rect x="1124.8" y="744" fill="#B0D9EF" width="24.9" height="2"/>
					</g>
					<g>
						<rect x="1124.8" y="747.8" fill="#B0D9EF" width="21.4" height="2"/>
					</g>
					<g>
						<linearGradient id="SVGID_22_" gradientUnits="userSpaceOnUse" x1="1124.7529" y1="753.9253" x2="1142.9561" y2="753.9253">
							<stop  offset="0" style="stop-color:#0369D1"/>
							<stop  offset="1" style="stop-color:#00ECBC"/>
						</linearGradient>
						<rect x="1124.8" y="752.9" opacity="0.3" fill="url(#SVGID_22_)" width="18.2" height="2"/>
					</g>
				</g>
			</g>
			<g>
				<linearGradient id="SVGID_23_" gradientUnits="userSpaceOnUse" x1="1103.9951" y1="764.3666" x2="1121.5586" y2="764.3666">
					<stop  offset="0" style="stop-color:#0369D1"/>
					<stop  offset="1" style="stop-color:#00ECBC"/>
				</linearGradient>
				<rect x="1104" y="758.5" opacity="0.3" fill="url(#SVGID_23_)" width="17.6" height="11.8"/>
				<g>
					<g>
						<rect x="1124.8" y="758.9" fill="#B0D9EF" width="24.9" height="2"/>
					</g>
					<g>
						<rect x="1124.8" y="762.7" fill="#B0D9EF" width="21.4" height="2"/>
					</g>
					<g>
						<linearGradient id="SVGID_24_" gradientUnits="userSpaceOnUse" x1="1124.7529" y1="768.8393" x2="1142.9561" y2="768.8393">
							<stop  offset="0" style="stop-color:#0369D1"/>
							<stop  offset="1" style="stop-color:#00ECBC"/>
						</linearGradient>
						<rect x="1124.8" y="767.8" opacity="0.3" fill="url(#SVGID_24_)" width="18.2" height="2"/>
					</g>
				</g>
			</g>
			<g>
				<linearGradient id="SVGID_25_" gradientUnits="userSpaceOnUse" x1="1103.9951" y1="779.2806" x2="1121.5586" y2="779.2806">
					<stop  offset="0" style="stop-color:#0369D1"/>
					<stop  offset="1" style="stop-color:#00ECBC"/>
				</linearGradient>
				<rect x="1104" y="773.4" opacity="0.3" fill="url(#SVGID_25_)" width="17.6" height="11.8"/>
				<g>
					<g>
						<rect x="1124.8" y="773.8" fill="#B0D9EF" width="24.9" height="2"/>
					</g>
					<g>
						<rect x="1124.8" y="777.6" fill="#B0D9EF" width="21.4" height="2"/>
					</g>
					<g>
						<linearGradient id="SVGID_26_" gradientUnits="userSpaceOnUse" x1="1124.7529" y1="783.7534" x2="1142.9561" y2="783.7534">
							<stop  offset="0" style="stop-color:#0369D1"/>
							<stop  offset="1" style="stop-color:#00ECBC"/>
						</linearGradient>
						<rect x="1124.8" y="782.8" opacity="0.3" fill="url(#SVGID_26_)" width="18.2" height="2"/>
					</g>
				</g>
			</g>
			<g>
				<linearGradient id="SVGID_27_" gradientUnits="userSpaceOnUse" x1="1103.9951" y1="793.6147" x2="1121.5586" y2="793.6147">
					<stop  offset="0" style="stop-color:#0369D1"/>
					<stop  offset="1" style="stop-color:#00ECBC"/>
				</linearGradient>
				<rect x="1104" y="787.7" opacity="0.3" fill="url(#SVGID_27_)" width="17.6" height="11.8"/>
				<g>
					<g>
						<rect x="1124.8" y="788.1" fill="#B0D9EF" width="24.9" height="2"/>
					</g>
					<g>
						<rect x="1124.8" y="792" fill="#B0D9EF" width="21.4" height="2"/>
					</g>
					<g>
						<linearGradient id="SVGID_28_" gradientUnits="userSpaceOnUse" x1="1124.7529" y1="798.0873" x2="1142.9561" y2="798.0873">
							<stop  offset="0" style="stop-color:#0369D1"/>
							<stop  offset="1" style="stop-color:#00ECBC"/>
						</linearGradient>
						<rect x="1124.8" y="797.1" opacity="0.3" fill="url(#SVGID_28_)" width="18.2" height="2"/>
					</g>
				</g>
			</g>
			<g>
				<linearGradient id="SVGID_29_" gradientUnits="userSpaceOnUse" x1="1103.9951" y1="808.5287" x2="1121.5586" y2="808.5287">
					<stop  offset="0" style="stop-color:#0369D1"/>
					<stop  offset="1" style="stop-color:#00ECBC"/>
				</linearGradient>
				<rect x="1104" y="802.6" opacity="0.3" fill="url(#SVGID_29_)" width="17.6" height="11.8"/>
				<g>
					<g>
						<rect x="1124.8" y="803.1" fill="#B0D9EF" width="24.9" height="2"/>
					</g>
					<g>
						<rect x="1124.8" y="806.9" fill="#B0D9EF" width="21.4" height="2"/>
					</g>
					<g>
						<linearGradient id="SVGID_30_" gradientUnits="userSpaceOnUse" x1="1124.7529" y1="813.0013" x2="1142.9561" y2="813.0013">
							<stop  offset="0" style="stop-color:#0369D1"/>
							<stop  offset="1" style="stop-color:#00ECBC"/>
						</linearGradient>
						<rect x="1124.8" y="812" opacity="0.3" fill="url(#SVGID_30_)" width="18.2" height="2"/>
					</g>
				</g>
			</g>
			<g>
				<linearGradient id="SVGID_31_" gradientUnits="userSpaceOnUse" x1="1103.9951" y1="823.4427" x2="1121.5586" y2="823.4427">
					<stop  offset="0" style="stop-color:#0369D1"/>
					<stop  offset="1" style="stop-color:#00ECBC"/>
				</linearGradient>
				<rect x="1104" y="817.5" opacity="0.3" fill="url(#SVGID_31_)" width="17.6" height="11.8"/>
				<g>
					<g>
						<rect x="1124.8" y="818" fill="#B0D9EF" width="24.9" height="2"/>
					</g>
					<g>
						<rect x="1124.8" y="821.8" fill="#B0D9EF" width="21.4" height="2"/>
					</g>
					<g>
						<linearGradient id="SVGID_32_" gradientUnits="userSpaceOnUse" x1="1124.7529" y1="827.9155" x2="1142.9561" y2="827.9155">
							<stop  offset="0" style="stop-color:#0369D1"/>
							<stop  offset="1" style="stop-color:#00ECBC"/>
						</linearGradient>
						<rect x="1124.8" y="826.9" opacity="0.3" fill="url(#SVGID_32_)" width="18.2" height="2"/>
					</g>
				</g>
			</g>
		</g>
	</g>
	<g>
		<g>
			<g>
				<path fill="#E8E9EB" d="M917.4,888.1c-1.9,0-3.5-1.5-3.5-3.5v-75.5c0-1.9,1.6-3.5,3.5-3.5h125.8c1.9,0,3.5,1.6,3.5,3.5v75.5
					c0,1.9-1.5,3.5-3.5,3.5H917.4z"/>
				<linearGradient id="SVGID_33_" gradientUnits="userSpaceOnUse" x1="912.4209" y1="846.8862" x2="1048.1025" y2="846.8862">
					<stop  offset="0" style="stop-color:#0369D1"/>
					<stop  offset="1" style="stop-color:#00ECBC"/>
				</linearGradient>
				<path fill="url(#SVGID_33_)" d="M1043.1,889.6H917.4c-2.7,0-5-2.2-5-5v-75.5c0-2.7,2.2-5,5-5h125.8c2.7,0,5,2.2,5,5v75.5
					C1048.1,887.4,1045.9,889.6,1043.1,889.6z M917.4,807.2c-1.1,0-2,0.9-2,2v75.5c0,1.1,0.9,2,2,2h125.8c1.1,0,2-0.9,2-2v-75.5
					c0-1.1-0.9-2-2-2H917.4z"/>
			</g>
			<rect x="926.7" y="812.4" fill="#FFFFFF" width="107.1" height="68.9"/>
			<g>
				<g>
					<linearGradient id="SVGID_34_" gradientUnits="userSpaceOnUse" x1="1038.874" y1="846.8862" x2="1038.874" y2="846.8862">
						<stop  offset="0" style="stop-color:#0369D1"/>
						<stop  offset="1" style="stop-color:#00ECBC"/>
					</linearGradient>
					<path opacity="0.3" fill="url(#SVGID_34_)" d="M1038.9,837.6v18.5V837.6z"/>
					<linearGradient id="SVGID_35_" gradientUnits="userSpaceOnUse" x1="1037.374" y1="846.8862" x2="1040.374" y2="846.8862">
						<stop  offset="0" style="stop-color:#0369D1"/>
						<stop  offset="1" style="stop-color:#00ECBC"/>
					</linearGradient>
					<rect x="1037.4" y="837.6" fill="url(#SVGID_35_)" width="3" height="18.5"/>
				</g>
			</g>
			<g>
				<linearGradient id="SVGID_36_" gradientUnits="userSpaceOnUse" x1="921.8174" y1="846.8871" x2="921.8174" y2="846.8871">
					<stop  offset="0" style="stop-color:#0369D1"/>
					<stop  offset="1" style="stop-color:#00ECBC"/>
				</linearGradient>
				<path opacity="0.3" fill="url(#SVGID_36_)" d="M921.8,844.6v4.5V844.6z"/>
				<linearGradient id="SVGID_37_" gradientUnits="userSpaceOnUse" x1="920.3174" y1="846.8871" x2="923.3174" y2="846.8871">
					<stop  offset="0" style="stop-color:#0369D1"/>
					<stop  offset="1" style="stop-color:#00ECBC"/>
				</linearGradient>
				<rect x="920.3" y="844.6" fill="url(#SVGID_37_)" width="3" height="4.5"/>
			</g>
		</g>
		<g>
			<g>
				<linearGradient id="SVGID_38_" gradientUnits="userSpaceOnUse" x1="930.9824" y1="845.2641" x2="1028.041" y2="845.2641">
					<stop  offset="0" style="stop-color:#0369D1"/>
					<stop  offset="1" style="stop-color:#00ECBC"/>
				</linearGradient>
				<rect x="931" y="822" fill="url(#SVGID_38_)" width="97.1" height="46.6"/>
				<polygon fill="#FFFFFF" points="984.4,845.3 974.7,851.3 974.7,839.2 				"/>
			</g>
			<g>
				<g>
					<g>
						<rect x="930.6" y="872.3" fill="#B0D9EF" width="46.7" height="2"/>
					</g>
					<g opacity="0.3">
						<linearGradient id="SVGID_39_" gradientUnits="userSpaceOnUse" x1="930.6299" y1="876.9819" x2="960.2099" y2="876.9819">
							<stop  offset="0" style="stop-color:#0369D1"/>
							<stop  offset="1" style="stop-color:#00ECBC"/>
						</linearGradient>
						<rect x="930.6" y="876" fill="url(#SVGID_39_)" width="29.6" height="2"/>
					</g>
					<g>
						<linearGradient id="SVGID_40_" gradientUnits="userSpaceOnUse" x1="994.042" y1="876.9819" x2="1000.3281" y2="876.9819">
							<stop  offset="0" style="stop-color:#0369D1"/>
							<stop  offset="1" style="stop-color:#00ECBC"/>
						</linearGradient>
						<rect x="994" y="876" opacity="0.3" fill="url(#SVGID_40_)" width="6.3" height="2"/>
					</g>
					<g>
						<linearGradient id="SVGID_41_" gradientUnits="userSpaceOnUse" x1="989.0459" y1="876.9819" x2="992.0615" y2="876.9819">
							<stop  offset="0" style="stop-color:#0369D1"/>
							<stop  offset="1" style="stop-color:#00ECBC"/>
						</linearGradient>
						<rect x="989" y="876" opacity="0.3" fill="url(#SVGID_41_)" width="3" height="2"/>
					</g>
					<g>
						<linearGradient id="SVGID_42_" gradientUnits="userSpaceOnUse" x1="1008.9248" y1="876.9819" x2="1015.2119" y2="876.9819">
							<stop  offset="0" style="stop-color:#0369D1"/>
							<stop  offset="1" style="stop-color:#00ECBC"/>
						</linearGradient>
						<rect x="1008.9" y="876" opacity="0.3" fill="url(#SVGID_42_)" width="6.3" height="2"/>
					</g>
					<g>
						<linearGradient id="SVGID_43_" gradientUnits="userSpaceOnUse" x1="1003.9287" y1="876.9819" x2="1006.9443" y2="876.9819">
							<stop  offset="0" style="stop-color:#0369D1"/>
							<stop  offset="1" style="stop-color:#00ECBC"/>
						</linearGradient>
						<rect x="1003.9" y="876" opacity="0.3" fill="url(#SVGID_43_)" width="3" height="2"/>
					</g>
					<g>
						<linearGradient id="SVGID_44_" gradientUnits="userSpaceOnUse" x1="1017.7988" y1="876.9819" x2="1020.8144" y2="876.9819">
							<stop  offset="0" style="stop-color:#0369D1"/>
							<stop  offset="1" style="stop-color:#00ECBC"/>
						</linearGradient>
						<rect x="1017.8" y="876" opacity="0.3" fill="url(#SVGID_44_)" width="3" height="2"/>
					</g>
					<g>
						<linearGradient id="SVGID_45_" gradientUnits="userSpaceOnUse" x1="1023.6221" y1="876.9819" x2="1026.6377" y2="876.9819">
							<stop  offset="0" style="stop-color:#0369D1"/>
							<stop  offset="1" style="stop-color:#00ECBC"/>
						</linearGradient>
						<rect x="1023.6" y="876" opacity="0.3" fill="url(#SVGID_45_)" width="3" height="2"/>
					</g>
				</g>
			</g>
			<g>
				<rect x="930.6" y="815.7" fill="#B0D9EF" width="10.2" height="2"/>
			</g>
			<g>
				<linearGradient id="SVGID_46_" gradientUnits="userSpaceOnUse" x1="950.042" y1="816.6927" x2="979.6211" y2="816.6927">
					<stop  offset="0" style="stop-color:#0369D1"/>
					<stop  offset="1" style="stop-color:#00ECBC"/>
				</linearGradient>
				<rect x="950" y="815.7" opacity="0.3" fill="url(#SVGID_46_)" width="29.6" height="2"/>
			</g>
			<g>
				<linearGradient id="SVGID_47_" gradientUnits="userSpaceOnUse" x1="982.5332" y1="816.6927" x2="985.5508" y2="816.6927">
					<stop  offset="0" style="stop-color:#0369D1"/>
					<stop  offset="1" style="stop-color:#00ECBC"/>
				</linearGradient>
				<rect x="982.5" y="815.7" opacity="0.3" fill="url(#SVGID_47_)" width="3" height="2"/>
			</g>
		</g>
		<g>
			<g>
				<linearGradient id="SVGID_48_" gradientUnits="userSpaceOnUse" x1="1007.7763" y1="817.1987" x2="1010.8838" y2="817.1987">
					<stop  offset="0" style="stop-color:#0369D1"/>
					<stop  offset="1" style="stop-color:#00ECBC"/>
				</linearGradient>
				<rect x="1007.8" y="816.2" opacity="0.3" fill="url(#SVGID_48_)" width="3.1" height="2"/>
			</g>
			<g>
				<linearGradient id="SVGID_49_" gradientUnits="userSpaceOnUse" x1="1014.4424" y1="817.1987" x2="1017.5498" y2="817.1987">
					<stop  offset="0" style="stop-color:#0369D1"/>
					<stop  offset="1" style="stop-color:#00ECBC"/>
				</linearGradient>
				<rect x="1014.4" y="816.2" opacity="0.3" fill="url(#SVGID_49_)" width="3.1" height="2"/>
			</g>
			<linearGradient id="SVGID_50_" gradientUnits="userSpaceOnUse" x1="1022.7763" y1="817.1987" x2="1028.1084" y2="817.1987">
				<stop  offset="0" style="stop-color:#0369D1"/>
				<stop  offset="1" style="stop-color:#00ECBC"/>
			</linearGradient>
			<path opacity="0.3" fill="url(#SVGID_50_)" d="M1028.1,817.2c0,1.5-1.2,2.7-2.7,2.7s-2.7-1.2-2.7-2.7s1.2-2.7,2.7-2.7
				S1028.1,815.7,1028.1,817.2z"/>
		</g>
	</g>
	<g>
		<g>
			<g>
				<path fill="#FFFFFF" d="M1177.8,898.1c0,2.1-1.7,3.8-3.8,3.8h-52.9c-2.1,0-3.8-1.7-3.8-3.8l0-111.5c0-2.1,1.7-3.8,3.8-3.8h52.9
					c2.1,0,3.8,1.7,3.8,3.8V898.1z"/>
				<linearGradient id="SVGID_51_" gradientUnits="userSpaceOnUse" x1="1115.8154" y1="842.3901" x2="1179.2861" y2="842.3901">
					<stop  offset="0" style="stop-color:#0369D1"/>
					<stop  offset="1" style="stop-color:#00ECBC"/>
				</linearGradient>
				<path fill="url(#SVGID_51_)" d="M1174,903.4h-52.9c-2.9,0-5.3-2.4-5.3-5.3l0-111.5c0-2.9,2.4-5.3,5.3-5.3h52.9
					c2.9,0,5.3,2.4,5.3,5.3v111.5C1179.3,901,1176.9,903.4,1174,903.4z M1121.1,784.4c-1.3,0-2.3,1-2.3,2.3l0,111.5
					c0,1.3,1,2.3,2.3,2.3h52.9c1.3,0,2.3-1,2.3-2.3V786.6c0-1.3-1-2.3-2.3-2.3H1121.1z"/>
			</g>
			<g>
				<g>
					<path fill="#FFFFFF" d="M1137.5,790.2h20.2H1137.5z"/>
					<linearGradient id="SVGID_52_" gradientUnits="userSpaceOnUse" x1="1137.4512" y1="790.1694" x2="1157.6523" y2="790.1694">
						<stop  offset="0" style="stop-color:#0369D1"/>
						<stop  offset="1" style="stop-color:#00ECBC"/>
					</linearGradient>
					<rect x="1137.5" y="788.7" fill="url(#SVGID_52_)" width="20.2" height="3"/>
				</g>
			</g>
			<g>
				<path fill="#FFFFFF" d="M1146.2,894.5h2.8H1146.2z"/>
				<linearGradient id="SVGID_53_" gradientUnits="userSpaceOnUse" x1="1146.1572" y1="894.5464" x2="1148.9443" y2="894.5464">
					<stop  offset="0" style="stop-color:#0369D1"/>
					<stop  offset="1" style="stop-color:#00ECBC"/>
				</linearGradient>
				<rect x="1146.2" y="893" fill="url(#SVGID_53_)" width="2.8" height="3"/>
			</g>
		</g>
		<linearGradient id="SVGID_54_" gradientUnits="userSpaceOnUse" x1="1121.7314" y1="842.3911" x2="1173.3701" y2="842.3911">
			<stop  offset="0" style="stop-color:#0369D1"/>
			<stop  offset="1" style="stop-color:#00ECBC"/>
		</linearGradient>
		<rect x="1121.7" y="797.2" fill="url(#SVGID_54_)" width="51.6" height="90.4"/>
		<g>
			<g>
				<g>
					<polygon fill="#FFFFFF" points="1133.4,884.8 1124.1,884.8 1124.1,875.4 1127.1,875.4 1127.1,881.8 1133.4,881.8 					"/>
				</g>
				<g>
					<polygon fill="#FFFFFF" points="1171,884.8 1161.7,884.8 1161.7,881.8 1168,881.8 1168,875.4 1171,875.4 					"/>
				</g>
			</g>
			<g>
				<g>
					<polygon fill="#FFFFFF" points="1127.1,809.4 1124.1,809.4 1124.1,800 1133.4,800 1133.4,803 1127.1,803 					"/>
				</g>
				<g>
					<polygon fill="#FFFFFF" points="1171,809.4 1168,809.4 1168,803 1161.7,803 1161.7,800 1171,800 					"/>
				</g>
			</g>
		</g>
		<path fill="#FFFFFF" d="M1147.6,833.1c-5.2,0-9.3,4.2-9.3,9.3c0,5.2,4.2,9.3,9.3,9.3c5.2,0,9.3-4.2,9.3-9.3
			C1156.9,837.2,1152.7,833.1,1147.6,833.1z M1148.6,844.2l-3.1,1.8v-3.5v-3.5l3.1,1.8l3.1,1.8L1148.6,844.2z"/>
	</g>
	<g>
		<g>
			<path fill="#FFFFFF" d="M1156.4,824.9c0,1.6,1.2,2.9,2.7,2.9h5.2v10.7l12.6-10.7h35.9c1.5,0,2.7-1.3,2.7-2.9v-23.4
				c0-1.6-1.2-2.9-2.7-2.9h-53.8c-1.5,0-2.7,1.3-2.7,2.9V824.9z"/>
			<linearGradient id="SVGID_55_" gradientUnits="userSpaceOnUse" x1="1154.8973" y1="819.4565" x2="1216.9805" y2="819.4565">
				<stop  offset="0" style="stop-color:#0369D1"/>
				<stop  offset="1" style="stop-color:#00ECBC"/>
			</linearGradient>
			<path fill="url(#SVGID_55_)" d="M1162.7,841.7v-12.4h-3.7c-2.3,0-4.2-2-4.2-4.4v-23.4c0-2.4,1.9-4.4,4.2-4.4h53.8
				c2.3,0,4.2,2,4.2,4.4v23.4c0,2.4-1.9,4.4-4.2,4.4h-35.4L1162.7,841.7z M1159.1,800.2c-0.6,0-1.2,0.6-1.2,1.4v23.4
				c0,0.7,0.5,1.4,1.2,1.4h6.7v9l10.6-9h36.5c0.6,0,1.2-0.6,1.2-1.4v-23.4c0-0.7-0.5-1.4-1.2-1.4H1159.1z"/>
		</g>
	</g>
	<g>
		<linearGradient id="SVGID_56_" gradientUnits="userSpaceOnUse" x1="1167.8972" y1="813.5727" x2="1200.5739" y2="813.5727">
			<stop  offset="0" style="stop-color:#0369D1"/>
			<stop  offset="1" style="stop-color:#00ECBC"/>
		</linearGradient>
		<path fill="url(#SVGID_56_)" d="M1169.3,819.6v-12.1h2.6v10h4.9v2.1H1169.3z"/>
		<linearGradient id="SVGID_57_" gradientUnits="userSpaceOnUse" x1="1167.8972" y1="813.5727" x2="1200.5739" y2="813.5727">
			<stop  offset="0" style="stop-color:#0369D1"/>
			<stop  offset="1" style="stop-color:#00ECBC"/>
		</linearGradient>
		<path fill="url(#SVGID_57_)" d="M1178.9,819.6v-12.1h2.6v12.1H1178.9z"/>
		<linearGradient id="SVGID_58_" gradientUnits="userSpaceOnUse" x1="1167.8972" y1="813.5727" x2="1200.5739" y2="813.5727">
			<stop  offset="0" style="stop-color:#0369D1"/>
			<stop  offset="1" style="stop-color:#00ECBC"/>
		</linearGradient>
		<path fill="url(#SVGID_58_)" d="M1191.4,807.5h2.6l-4.1,12.1h-2.8l-4.1-12.1h2.6l2.3,7.2c0.1,0.4,0.3,0.9,0.4,1.5
			c0.1,0.6,0.2,1,0.3,1.2c0.1-0.5,0.3-1.4,0.6-2.7L1191.4,807.5z"/>
		<linearGradient id="SVGID_59_" gradientUnits="userSpaceOnUse" x1="1167.8972" y1="813.5727" x2="1200.5739" y2="813.5727">
			<stop  offset="0" style="stop-color:#0369D1"/>
			<stop  offset="1" style="stop-color:#00ECBC"/>
		</linearGradient>
		<path fill="url(#SVGID_59_)" d="M1202.5,819.6h-7v-12.1h7v2.1h-4.4v2.7h4.1v2.1h-4.1v3.1h4.4V819.6z"/>
	</g>
	<g>
		<g>
			<path fill="#FFFFFF" d="M1011.5,752.2c0-1.6-1.2-2.9-2.7-2.9h-5.2v-10.7L991,749.4h-56.4c-1.5,0-2.7,1.3-2.7,2.9v23.4
				c0,1.6,1.2,2.9,2.7,2.9h74.2c1.5,0,2.7-1.3,2.7-2.9V752.2z"/>
			<linearGradient id="SVGID_60_" gradientUnits="userSpaceOnUse" x1="930.4687" y1="757.7201" x2="1012.9805" y2="757.7201">
				<stop  offset="0" style="stop-color:#0369D1"/>
				<stop  offset="1" style="stop-color:#00ECBC"/>
			</linearGradient>
			<path fill="url(#SVGID_60_)" d="M1008.8,780h-74.2c-2.3,0-4.2-2-4.2-4.4v-23.4c0-2.4,1.9-4.4,4.2-4.4h55.8l14.7-12.4v12.4h3.7
				c2.3,0,4.2,2,4.2,4.4v23.4C1013,778,1011.1,780,1008.8,780z M934.6,750.9c-0.6,0-1.2,0.6-1.2,1.4v23.4c0,0.7,0.5,1.4,1.2,1.4
				h74.2c0.6,0,1.2-0.6,1.2-1.4v-23.4c0-0.7-0.5-1.4-1.2-1.4h-6.7v-9l-10.6,9H934.6z"/>
		</g>
	</g>
	<g>
		<linearGradient id="SVGID_61_" gradientUnits="userSpaceOnUse" x1="941.2385" y1="762.5678" x2="1004.4165" y2="762.5678">
			<stop  offset="0" style="stop-color:#0369D1"/>
			<stop  offset="1" style="stop-color:#00ECBC"/>
		</linearGradient>
		<path fill="url(#SVGID_61_)" d="M947.6,765.3c0,1.1-0.4,2-1.2,2.6c-0.8,0.6-1.9,0.9-3.3,0.9c-1.3,0-2.4-0.2-3.4-0.7v-2.4
			c0.8,0.4,1.5,0.6,2.1,0.8c0.6,0.2,1.1,0.2,1.6,0.2c0.6,0,1-0.1,1.3-0.3c0.3-0.2,0.5-0.5,0.5-1c0-0.2-0.1-0.4-0.2-0.6
			c-0.1-0.2-0.3-0.4-0.6-0.5c-0.3-0.2-0.8-0.4-1.6-0.8c-0.7-0.3-1.3-0.7-1.7-1c-0.4-0.3-0.7-0.7-0.9-1.1c-0.2-0.4-0.3-0.9-0.3-1.5
			c0-1.1,0.4-1.9,1.1-2.5c0.7-0.6,1.7-0.9,3-0.9c0.6,0,1.2,0.1,1.8,0.2c0.6,0.2,1.2,0.4,1.8,0.6l-0.8,2c-0.6-0.3-1.2-0.4-1.6-0.6
			c-0.4-0.1-0.8-0.2-1.2-0.2c-0.5,0-0.9,0.1-1.1,0.3c-0.3,0.2-0.4,0.5-0.4,0.9c0,0.2,0.1,0.4,0.2,0.6c0.1,0.2,0.3,0.3,0.5,0.5
			c0.2,0.2,0.8,0.4,1.6,0.8c1.1,0.5,1.9,1.1,2.3,1.6C947.4,763.8,947.6,764.5,947.6,765.3z"/>
		<linearGradient id="SVGID_62_" gradientUnits="userSpaceOnUse" x1="941.2385" y1="762.5727" x2="1004.4165" y2="762.5727">
			<stop  offset="0" style="stop-color:#0369D1"/>
			<stop  offset="1" style="stop-color:#00ECBC"/>
		</linearGradient>
		<path fill="url(#SVGID_62_)" d="M959.8,768.6h-2.6v-5.2h-4.8v5.2h-2.6v-12.1h2.6v4.8h4.8v-4.8h2.6V768.6z"/>
		<linearGradient id="SVGID_63_" gradientUnits="userSpaceOnUse" x1="941.2385" y1="762.5473" x2="1004.4165" y2="762.5473">
			<stop  offset="0" style="stop-color:#0369D1"/>
			<stop  offset="1" style="stop-color:#00ECBC"/>
		</linearGradient>
		<path fill="url(#SVGID_63_)" d="M970.3,768.6l-0.9-2.9h-4.4l-0.9,2.9h-2.8l4.3-12.2h3.1l4.3,12.2H970.3z M968.8,763.6
			c-0.8-2.6-1.3-4.1-1.4-4.4c-0.1-0.3-0.2-0.6-0.2-0.8c-0.2,0.7-0.7,2.5-1.6,5.3H968.8z"/>
		<linearGradient id="SVGID_64_" gradientUnits="userSpaceOnUse" x1="941.2385" y1="762.5727" x2="1004.4165" y2="762.5727">
			<stop  offset="0" style="stop-color:#0369D1"/>
			<stop  offset="1" style="stop-color:#00ECBC"/>
		</linearGradient>
		<path fill="url(#SVGID_64_)" d="M977.1,764v4.7h-2.6v-12.1h3.5c1.6,0,2.9,0.3,3.7,0.9c0.8,0.6,1.2,1.5,1.2,2.7
			c0,0.7-0.2,1.3-0.6,1.9c-0.4,0.6-0.9,1-1.7,1.3c1.8,2.7,3,4.5,3.6,5.3h-2.9l-2.9-4.7H977.1z M977.1,761.9h0.8
			c0.8,0,1.4-0.1,1.8-0.4c0.4-0.3,0.6-0.7,0.6-1.3c0-0.6-0.2-1-0.6-1.2c-0.4-0.2-1-0.4-1.8-0.4h-0.8V761.9z"/>
		<linearGradient id="SVGID_65_" gradientUnits="userSpaceOnUse" x1="941.2385" y1="762.5727" x2="1004.4165" y2="762.5727">
			<stop  offset="0" style="stop-color:#0369D1"/>
			<stop  offset="1" style="stop-color:#00ECBC"/>
		</linearGradient>
		<path fill="url(#SVGID_65_)" d="M992.8,768.6h-7v-12.1h7v2.1h-4.4v2.7h4.1v2.1h-4.1v3.1h4.4V768.6z"/>
		<linearGradient id="SVGID_66_" gradientUnits="userSpaceOnUse" x1="941.2385" y1="762.5727" x2="1004.4165" y2="762.5727">
			<stop  offset="0" style="stop-color:#0369D1"/>
			<stop  offset="1" style="stop-color:#00ECBC"/>
		</linearGradient>
		<path fill="url(#SVGID_66_)" d="M1005.4,762.5c0,2-0.6,3.5-1.7,4.6c-1.1,1.1-2.8,1.6-4.9,1.6h-3.4v-12.1h3.8c2,0,3.5,0.5,4.6,1.6
			C1004.8,759.1,1005.4,760.6,1005.4,762.5z M1002.7,762.5c0-2.6-1.2-3.9-3.5-3.9h-1.4v7.9h1.1
			C1001.4,766.5,1002.7,765.2,1002.7,762.5z"/>
	</g>
</g>
</svg>
